<svg xmlns="http://www.w3.org/2000/svg" width="1440" height="900"><path d="M695,412L752,473L764,421Z" fill="#96beab" stroke="#96beab" stroke-width="1.51"/><path d="M695,412L670,484L752,473Z" fill="#93bda9" stroke="#93bda9" stroke-width="1.51"/><path d="M764,421L733,330L695,412Z" fill="#9cc1b0" stroke="#9cc1b0" stroke-width="1.51"/><path d="M752,473L832,477L764,421Z" fill="#99c0ae" stroke="#99c0ae" stroke-width="1.51"/><path d="M764,421L862,352L733,330Z" fill="#a5c7b7" stroke="#a5c7b7" stroke-width="1.51"/><path d="M773,579L832,477L752,473Z" fill="#a2c5b4" stroke="#a2c5b4" stroke-width="1.51"/><path d="M695,412L598,393L670,484Z" fill="#9bc1af" stroke="#9bc1af" stroke-width="1.51"/><path d="M702,302L598,393L695,412Z" fill="#a3c6b6" stroke="#a3c6b6" stroke-width="1.51"/><path d="M733,330L702,302L695,412Z" fill="#a2c5b4" stroke="#a2c5b4" stroke-width="1.51"/><path d="M832,477L867,402L764,421Z" fill="#9fc3b2" stroke="#9fc3b2" stroke-width="1.51"/><path d="M737,226L695,239L702,302Z" fill="#b0cdbf" stroke="#b0cdbf" stroke-width="1.51"/><path d="M670,484L773,579L752,473Z" fill="#9cc1b0" stroke="#9cc1b0" stroke-width="1.51"/><path d="M867,402L862,352L764,421Z" fill="#a6c8b7" stroke="#a6c8b7" stroke-width="1.51"/><path d="M670,484L706,612L773,579Z" fill="#a3c5b5" stroke="#a3c5b5" stroke-width="1.51"/><path d="M598,393L572,508L670,484Z" fill="#9fc3b2" stroke="#9fc3b2" stroke-width="1.51"/><path d="M556,567L706,612L670,484Z" fill="#a9c9ba" stroke="#a9c9ba" stroke-width="1.51"/><path d="M773,579L855,567L832,477Z" fill="#aacaba" stroke="#aacaba" stroke-width="1.51"/><path d="M832,477L907,498L867,402Z" fill="#a3c6b5" stroke="#a3c6b5" stroke-width="1.51"/><path d="M902,605L855,567L870,669Z" fill="#bbd3c7" stroke="#bbd3c7" stroke-width="1.51"/><path d="M867,402L904,374L862,352Z" fill="#adcbbd" stroke="#adcbbd" stroke-width="1.51"/><path d="M907,498L904,374L867,402Z" fill="#a8c8b9" stroke="#a8c8b9" stroke-width="1.51"/><path d="M855,567L907,498L832,477Z" fill="#abcabb" stroke="#abcabb" stroke-width="1.51"/><path d="M702,302L582,298L598,393Z" fill="#aecbbd" stroke="#aecbbd" stroke-width="1.51"/><path d="M598,393L501,400L572,508Z" fill="#a5c7b7" stroke="#a5c7b7" stroke-width="1.51"/><path d="M702,302L695,239L582,298Z" fill="#b2cec0" stroke="#b2cec0" stroke-width="1.51"/><path d="M737,226L702,302L733,330Z" fill="#abcabb" stroke="#abcabb" stroke-width="1.51"/><path d="M737,226L733,330L870,263Z" fill="#b3cec1" stroke="#b3cec1" stroke-width="1.51"/><path d="M572,508L556,567L670,484Z" fill="#a9c9b9" stroke="#a9c9b9" stroke-width="1.51"/><path d="M471,506L556,567L572,508Z" fill="#b2cdc0" stroke="#b2cdc0" stroke-width="1.51"/><path d="M870,263L733,330L862,352Z" fill="#b1cdbf" stroke="#b1cdbf" stroke-width="1.51"/><path d="M938,310L870,263L862,352Z" fill="#b9d2c6" stroke="#b9d2c6" stroke-width="1.51"/><path d="M582,298L501,400L598,393Z" fill="#b0cdbf" stroke="#b0cdbf" stroke-width="1.51"/><path d="M855,567L902,605L907,498Z" fill="#b3cfc2" stroke="#b3cfc2" stroke-width="1.51"/><path d="M870,669L855,567L773,579Z" fill="#b5cfc3" stroke="#b5cfc3" stroke-width="1.51"/><path d="M706,612L770,680L773,579Z" fill="#afccbe" stroke="#afccbe" stroke-width="1.51"/><path d="M657,691L770,680L706,612Z" fill="#b2cec1" stroke="#b2cec1" stroke-width="1.51"/><path d="M1023,427L904,374L907,498Z" fill="#accabc" stroke="#accabc" stroke-width="1.51"/><path d="M1023,427L938,310L904,374Z" fill="#b7d0c4" stroke="#b7d0c4" stroke-width="1.51"/><path d="M904,374L938,310L862,352Z" fill="#b5d0c2" stroke="#b5d0c2" stroke-width="1.51"/><path d="M582,298L482,289L501,400Z" fill="#b9d1c6" stroke="#b9d1c6" stroke-width="1.51"/><path d="M695,239L583,229L582,298Z" fill="#bad2c6" stroke="#bad2c6" stroke-width="1.51"/><path d="M657,128L583,229L695,239Z" fill="#c0d5cb" stroke="#c0d5cb" stroke-width="1.51"/><path d="M559,664L657,691L706,612Z" fill="#b9d2c6" stroke="#b9d2c6" stroke-width="1.51"/><path d="M501,400L471,506L572,508Z" fill="#abcabb" stroke="#abcabb" stroke-width="1.51"/><path d="M556,567L559,664L706,612Z" fill="#b7d0c4" stroke="#b7d0c4" stroke-width="1.51"/><path d="M770,680L870,669L773,579Z" fill="#b8d1c5" stroke="#b8d1c5" stroke-width="1.51"/><path d="M737,226L761,167L695,239Z" fill="#b7d0c5" stroke="#b7d0c5" stroke-width="1.51"/><path d="M870,263L761,167L737,226Z" fill="#bcd3c8" stroke="#bcd3c8" stroke-width="1.51"/><path d="M818,146L761,167L870,263Z" fill="#c3d7cd" stroke="#c3d7cd" stroke-width="1.51"/><path d="M902,605L994,524L907,498Z" fill="#b7d1c4" stroke="#b7d1c4" stroke-width="1.51"/><path d="M870,669L925,633L902,605Z" fill="#c1d6cc" stroke="#c1d6cc" stroke-width="1.51"/><path d="M471,506L485,578L556,567Z" fill="#b8d1c5" stroke="#b8d1c5" stroke-width="1.51"/><path d="M485,578L559,664L556,567Z" fill="#bdd4c8" stroke="#bdd4c8" stroke-width="1.51"/><path d="M925,633L994,524L902,605Z" fill="#bed4ca" stroke="#bed4ca" stroke-width="1.51"/><path d="M384,580L425,634L485,578Z" fill="#c7d9d0" stroke="#c7d9d0" stroke-width="1.51"/><path d="M501,400L442,464L471,506Z" fill="#adcbbd" stroke="#adcbbd" stroke-width="1.51"/><path d="M401,420L442,464L501,400Z" fill="#b2cec0" stroke="#b2cec0" stroke-width="1.51"/><path d="M583,229L482,289L582,298Z" fill="#bfd5ca" stroke="#bfd5ca" stroke-width="1.51"/><path d="M770,680L883,755L870,669Z" fill="#c5d8cf" stroke="#c5d8cf" stroke-width="1.51"/><path d="M657,691L745,728L770,680Z" fill="#b8d1c5" stroke="#b8d1c5" stroke-width="1.51"/><path d="M675,770L745,728L657,691Z" fill="#bfd5cb" stroke="#bfd5cb" stroke-width="1.51"/><path d="M994,524L1023,427L907,498Z" fill="#b2cec0" stroke="#b2cec0" stroke-width="1.51"/><path d="M951,215L818,146L870,263Z" fill="#c8dad1" stroke="#c8dad1" stroke-width="1.51"/><path d="M761,167L657,128L695,239Z" fill="#bcd4c9" stroke="#bcd4c9" stroke-width="1.51"/><path d="M938,310L951,215L870,263Z" fill="#c3d8cd" stroke="#c3d8cd" stroke-width="1.51"/><path d="M1013,287L951,215L938,310Z" fill="#c8dad1" stroke="#c8dad1" stroke-width="1.51"/><path d="M681,94L657,128L761,167Z" fill="#c2d7cd" stroke="#c2d7cd" stroke-width="1.51"/><path d="M583,229L487,204L482,289Z" fill="#c7d9d1" stroke="#c7d9d1" stroke-width="1.51"/><path d="M482,289L423,337L501,400Z" fill="#bdd4c9" stroke="#bdd4c9" stroke-width="1.51"/><path d="M347,317L423,337L396,210Z" fill="#ceddd5" stroke="#ceddd5" stroke-width="1.51"/><path d="M1023,427L1013,287L938,310Z" fill="#bfd5ca" stroke="#bfd5ca" stroke-width="1.51"/><path d="M423,337L401,420L501,400Z" fill="#b9d2c6" stroke="#b9d2c6" stroke-width="1.51"/><path d="M384,580L485,578L471,506Z" fill="#bed5ca" stroke="#bed5ca" stroke-width="1.51"/><path d="M657,128L568,152L583,229Z" fill="#c9dad2" stroke="#c9dad2" stroke-width="1.51"/><path d="M577,782L675,770L657,691Z" fill="#c8dad1" stroke="#c8dad1" stroke-width="1.51"/><path d="M745,728L883,755L770,680Z" fill="#c3d7ce" stroke="#c3d7ce" stroke-width="1.51"/><path d="M559,664L577,782L657,691Z" fill="#c7d9d0" stroke="#c7d9d0" stroke-width="1.51"/><path d="M485,578L484,672L559,664Z" fill="#c5d8cf" stroke="#c5d8cf" stroke-width="1.51"/><path d="M425,634L484,672L485,578Z" fill="#c8dad1" stroke="#c8dad1" stroke-width="1.51"/><path d="M518,174L487,204L583,229Z" fill="#ccdcd4" stroke="#ccdcd4" stroke-width="1.51"/><path d="M568,152L518,174L583,229Z" fill="#ccdcd4" stroke="#ccdcd4" stroke-width="1.51"/><path d="M994,524L1055,556L1023,427Z" fill="#bad2c7" stroke="#bad2c7" stroke-width="1.51"/><path d="M1023,427L1075,345L1013,287Z" fill="#c2d6cd" stroke="#c2d6cd" stroke-width="1.51"/><path d="M925,633L1055,556L994,524Z" fill="#c1d6cc" stroke="#c1d6cc" stroke-width="1.51"/><path d="M994,693L1055,556L925,633Z" fill="#cadbd2" stroke="#cadbd2" stroke-width="1.51"/><path d="M657,128L598,87L568,152Z" fill="#ccdcd5" stroke="#ccdcd5" stroke-width="1.51"/><path d="M568,152L495,31L518,174Z" fill="#d6e2dc" stroke="#d6e2dc" stroke-width="1.51"/><path d="M764,66L681,94L761,167Z" fill="#c2d7cd" stroke="#c2d7cd" stroke-width="1.51"/><path d="M870,669L915,748L925,633Z" fill="#c9dad2" stroke="#c9dad2" stroke-width="1.51"/><path d="M818,822L883,755L745,728Z" fill="#cbdbd3" stroke="#cbdbd3" stroke-width="1.51"/><path d="M384,580L471,506L442,464Z" fill="#bad2c7" stroke="#bad2c7" stroke-width="1.51"/><path d="M1013,287L1049,262L951,215Z" fill="#ceddd5" stroke="#ceddd5" stroke-width="1.51"/><path d="M1113,440L1075,345L1023,427Z" fill="#bed4ca" stroke="#bed4ca" stroke-width="1.51"/><path d="M883,755L915,748L870,669Z" fill="#ceddd5" stroke="#ceddd5" stroke-width="1.51"/><path d="M876,54L764,66L818,146Z" fill="#ccddd5" stroke="#ccddd5" stroke-width="1.51"/><path d="M1075,345L1049,262L1013,287Z" fill="#ccdcd4" stroke="#ccdcd4" stroke-width="1.51"/><path d="M915,748L994,693L925,633Z" fill="#cfddd6" stroke="#cfddd6" stroke-width="1.51"/><path d="M341,463L384,580L442,464Z" fill="#bdd4c9" stroke="#bdd4c9" stroke-width="1.51"/><path d="M530,763L577,782L559,664Z" fill="#cfddd7" stroke="#cfddd7" stroke-width="1.51"/><path d="M675,770L698,821L745,728Z" fill="#c2d7cc" stroke="#c2d7cc" stroke-width="1.51"/><path d="M530,763L559,664L484,672Z" fill="#ccdcd5" stroke="#ccdcd5" stroke-width="1.51"/><path d="M681,94L598,87L657,128Z" fill="#c9dbd2" stroke="#c9dbd2" stroke-width="1.51"/><path d="M518,174L442,163L487,204Z" fill="#d5e0db" stroke="#d5e0db" stroke-width="1.51"/><path d="M818,146L764,66L761,167Z" fill="#c7d9d1" stroke="#c7d9d1" stroke-width="1.51"/><path d="M681,94L587,-6L598,87Z" fill="#cdded6" stroke="#cdded6" stroke-width="1.51"/><path d="M963,136L818,146L951,215Z" fill="#d1dfd9" stroke="#d1dfd9" stroke-width="1.51"/><path d="M445,738L530,763L484,672Z" fill="#d5e1db" stroke="#d5e1db" stroke-width="1.51"/><path d="M589,824L698,821L675,770Z" fill="#c8dbd2" stroke="#c8dbd2" stroke-width="1.51"/><path d="M933,866L1002,816L915,748Z" fill="#dae4df" stroke="#dae4df" stroke-width="1.51"/><path d="M1036,177L963,136L951,215Z" fill="#d8e2dd" stroke="#d8e2dd" stroke-width="1.51"/><path d="M401,420L341,463L442,464Z" fill="#b4cfc2" stroke="#b4cfc2" stroke-width="1.51"/><path d="M347,317L341,424L401,420Z" fill="#c2d6cc" stroke="#c2d6cc" stroke-width="1.51"/><path d="M347,317L401,420L423,337Z" fill="#c3d7cd" stroke="#c3d7cd" stroke-width="1.51"/><path d="M341,424L341,463L401,420Z" fill="#bad2c7" stroke="#bad2c7" stroke-width="1.51"/><path d="M1130,479L1113,440L1023,427Z" fill="#b9d1c6" stroke="#b9d1c6" stroke-width="1.51"/><path d="M1094,215L1036,177L1049,262Z" fill="#dae3de" stroke="#dae3de" stroke-width="1.51"/><path d="M1130,479L1023,427L1055,556Z" fill="#bdd3c9" stroke="#bdd3c9" stroke-width="1.51"/><path d="M915,748L1008,767L994,693Z" fill="#d9e3de" stroke="#d9e3de" stroke-width="1.51"/><path d="M773,834L818,822L745,728Z" fill="#c7dad1" stroke="#c7dad1" stroke-width="1.51"/><path d="M487,204L396,210L482,289Z" fill="#cfddd6" stroke="#cfddd6" stroke-width="1.51"/><path d="M495,31L442,163L518,174Z" fill="#dae4df" stroke="#dae4df" stroke-width="1.51"/><path d="M698,821L773,834L745,728Z" fill="#c3d7cd" stroke="#c3d7cd" stroke-width="1.51"/><path d="M396,210L423,337L482,289Z" fill="#cadbd3" stroke="#cadbd3" stroke-width="1.51"/><path d="M442,163L396,210L487,204Z" fill="#d7e2dc" stroke="#d7e2dc" stroke-width="1.51"/><path d="M1094,215L1049,262L1075,345Z" fill="#d3e0d9" stroke="#d3e0d9" stroke-width="1.51"/><path d="M1129,572L1130,479L1055,556Z" fill="#c8d9d1" stroke="#c8d9d1" stroke-width="1.51"/><path d="M1049,262L1036,177L951,215Z" fill="#d4e0db" stroke="#d4e0db" stroke-width="1.51"/><path d="M1094,215L1075,345L1204,351Z" fill="#d3e0da" stroke="#d3e0da" stroke-width="1.51"/><path d="M698,821L699,900L773,834Z" fill="#c3d8ce" stroke="#c3d8ce" stroke-width="1.51"/><path d="M577,782L589,824L675,770Z" fill="#ccddd5" stroke="#ccddd5" stroke-width="1.51"/><path d="M530,763L589,824L577,782Z" fill="#d2dfd9" stroke="#d2dfd9" stroke-width="1.51"/><path d="M530,763L478,807L589,824Z" fill="#d5e1db" stroke="#d5e1db" stroke-width="1.51"/><path d="M425,634L445,738L484,672Z" fill="#d2e0d9" stroke="#d2e0d9" stroke-width="1.51"/><path d="M327,750L445,738L425,634Z" fill="#dce5e0" stroke="#dce5e0" stroke-width="1.51"/><path d="M967,61L876,54L963,136Z" fill="#d9e3de" stroke="#d9e3de" stroke-width="1.51"/><path d="M963,136L876,54L818,146Z" fill="#d3e0da" stroke="#d3e0da" stroke-width="1.51"/><path d="M341,463L326,560L384,580Z" fill="#c6d9cf" stroke="#c6d9cf" stroke-width="1.51"/><path d="M384,580L305,682L425,634Z" fill="#d3e0d9" stroke="#d3e0d9" stroke-width="1.51"/><path d="M240,545L326,560L341,463Z" fill="#cadad3" stroke="#cadad3" stroke-width="1.51"/><path d="M305,682L326,560L240,545Z" fill="#d6e2dc" stroke="#d6e2dc" stroke-width="1.51"/><path d="M1140,659L1129,572L1055,556Z" fill="#d1dfd9" stroke="#d1dfd9" stroke-width="1.51"/><path d="M1041,69L967,61L963,136Z" fill="#dfe7e3" stroke="#dfe7e3" stroke-width="1.51"/><path d="M1204,351L1075,345L1113,440Z" fill="#c8dad1" stroke="#c8dad1" stroke-width="1.51"/><path d="M994,693L1140,659L1055,556Z" fill="#d3dfd9" stroke="#d3dfd9" stroke-width="1.51"/><path d="M1002,816L1008,767L915,748Z" fill="#dce5e0" stroke="#dce5e0" stroke-width="1.51"/><path d="M240,400L341,463L341,424Z" fill="#c1d6cc" stroke="#c1d6cc" stroke-width="1.51"/><path d="M396,210L349,213L347,317Z" fill="#d7e2dc" stroke="#d7e2dc" stroke-width="1.51"/><path d="M303,126L349,213L396,210Z" fill="#e3e8e5" stroke="#e3e8e5" stroke-width="1.51"/><path d="M445,738L478,807L530,763Z" fill="#dae4df" stroke="#dae4df" stroke-width="1.51"/><path d="M406,848L478,807L445,738Z" fill="#dfe7e3" stroke="#dfe7e3" stroke-width="1.51"/><path d="M1130,479L1167,491L1113,440Z" fill="#c1d6cc" stroke="#c1d6cc" stroke-width="1.51"/><path d="M1129,572L1167,491L1130,479Z" fill="#c9dad2" stroke="#c9dad2" stroke-width="1.51"/><path d="M1041,69L963,136L1036,177Z" fill="#e0e7e4" stroke="#e0e7e4" stroke-width="1.51"/><path d="M764,66L706,-9L681,94Z" fill="#c3d8cd" stroke="#c3d8cd" stroke-width="1.51"/><path d="M598,87L495,31L568,152Z" fill="#d3e1da" stroke="#d3e1da" stroke-width="1.51"/><path d="M442,163L303,126L396,210Z" fill="#e2e8e4" stroke="#e2e8e4" stroke-width="1.51"/><path d="M780,-13L706,-9L764,66Z" fill="#c7dbd1" stroke="#c7dbd1" stroke-width="1.51"/><path d="M780,-13L764,66L876,54Z" fill="#ccddd5" stroke="#ccddd5" stroke-width="1.51"/><path d="M870,-44L780,-13L876,54Z" fill="#d1e0d9" stroke="#d1e0d9" stroke-width="1.51"/><path d="M1008,767L1085,728L994,693Z" fill="#dee5e1" stroke="#dee5e1" stroke-width="1.51"/><path d="M1129,572L1193,557L1167,491Z" fill="#ceddd6" stroke="#ceddd6" stroke-width="1.51"/><path d="M865,907L933,866L818,822Z" fill="#d3e1da" stroke="#d3e1da" stroke-width="1.51"/><path d="M933,866L915,748L883,755Z" fill="#d5e1dc" stroke="#d5e1dc" stroke-width="1.51"/><path d="M589,824L699,900L698,821Z" fill="#c9dbd2" stroke="#c9dbd2" stroke-width="1.51"/><path d="M574,950L699,900L589,824Z" fill="#cedfd7" stroke="#cedfd7" stroke-width="1.51"/><path d="M1008,767L1121,850L1085,728Z" fill="#e7ebe9" stroke="#e7ebe9" stroke-width="1.51"/><path d="M933,866L883,755L818,822Z" fill="#d2e0d9" stroke="#d2e0d9" stroke-width="1.51"/><path d="M651,-119L587,-6L706,-9Z" fill="#cdded6" stroke="#cdded6" stroke-width="1.51"/><path d="M706,-9L587,-6L681,94Z" fill="#c9dcd3" stroke="#c9dcd3" stroke-width="1.51"/><path d="M1094,215L1094,151L1036,177Z" fill="#e1e8e4" stroke="#e1e8e4" stroke-width="1.51"/><path d="M1220,172L1094,151L1094,215Z" fill="#e8ece9" stroke="#e8ece9" stroke-width="1.51"/><path d="M1085,728L1140,659L994,693Z" fill="#dde5e1" stroke="#dde5e1" stroke-width="1.51"/><path d="M587,-6L495,31L598,87Z" fill="#d4e2db" stroke="#d4e2db" stroke-width="1.51"/><path d="M865,907L818,822L773,834Z" fill="#cdded6" stroke="#cdded6" stroke-width="1.51"/><path d="M1180,651L1193,557L1129,572Z" fill="#d6e2dc" stroke="#d6e2dc" stroke-width="1.51"/><path d="M1224,377L1204,351L1113,440Z" fill="#cadbd3" stroke="#cadbd3" stroke-width="1.51"/><path d="M1224,377L1113,440L1167,491Z" fill="#c2d7cd" stroke="#c2d7cd" stroke-width="1.51"/><path d="M326,560L305,682L384,580Z" fill="#d3dfd9" stroke="#d3dfd9" stroke-width="1.51"/><path d="M240,400L341,424L347,317Z" fill="#c8dad1" stroke="#c8dad1" stroke-width="1.51"/><path d="M1075,87L1041,69L1036,177Z" fill="#e5eae7" stroke="#e5eae7" stroke-width="1.51"/><path d="M967,61L948,-13L876,54Z" fill="#dae5df" stroke="#dae5df" stroke-width="1.51"/><path d="M771,939L865,907L773,834Z" fill="#ccded5" stroke="#ccded5" stroke-width="1.51"/><path d="M214,325L240,400L347,317Z" fill="#d0ded8" stroke="#d0ded8" stroke-width="1.51"/><path d="M1094,151L1075,87L1036,177Z" fill="#e6eae8" stroke="#e6eae8" stroke-width="1.51"/><path d="M1167,83L1075,87L1094,151Z" fill="#ebedec" stroke="#ebedec" stroke-width="1.51"/><path d="M216,507L240,545L341,463Z" fill="#c9dad2" stroke="#c9dad2" stroke-width="1.51"/><path d="M1206,740L1140,659L1085,728Z" fill="#e7ebe9" stroke="#e7ebe9" stroke-width="1.51"/><path d="M1206,740L1180,651L1140,659Z" fill="#e4e9e7" stroke="#e4e9e7" stroke-width="1.51"/><path d="M1140,659L1180,651L1129,572Z" fill="#dbe4e0" stroke="#dbe4e0" stroke-width="1.51"/><path d="M699,900L771,939L773,834Z" fill="#c6dad0" stroke="#c6dad0" stroke-width="1.51"/><path d="M779,998L771,939L696,1029Z" fill="#c9ddd3" stroke="#c9ddd3" stroke-width="1.51"/><path d="M1250,478L1167,491L1193,557Z" fill="#cadbd3" stroke="#cadbd3" stroke-width="1.51"/><path d="M1250,478L1224,377L1167,491Z" fill="#c1d6cc" stroke="#c1d6cc" stroke-width="1.51"/><path d="M1204,351L1209,230L1094,215Z" fill="#dde5e1" stroke="#dde5e1" stroke-width="1.51"/><path d="M349,213L263,244L347,317Z" fill="#dae3df" stroke="#dae3df" stroke-width="1.51"/><path d="M245,180L263,244L349,213Z" fill="#e5e9e7" stroke="#e5e9e7" stroke-width="1.51"/><path d="M1032,-42L967,61L1041,69Z" fill="#e3eae6" stroke="#e3eae6" stroke-width="1.51"/><path d="M1032,-42L948,-13L967,61Z" fill="#e0e9e5" stroke="#e0e9e5" stroke-width="1.51"/><path d="M948,-13L870,-44L876,54Z" fill="#d7e4de" stroke="#d7e4de" stroke-width="1.51"/><path d="M780,-13L753,-79L706,-9Z" fill="#c8dcd2" stroke="#c8dcd2" stroke-width="1.51"/><path d="M305,682L327,750L425,634Z" fill="#dee5e2" stroke="#dee5e2" stroke-width="1.51"/><path d="M470,913L574,950L589,824Z" fill="#d7e4dd" stroke="#d7e4dd" stroke-width="1.51"/><path d="M268,690L327,750L305,682Z" fill="#e6eae8" stroke="#e6eae8" stroke-width="1.51"/><path d="M240,545L268,690L305,682Z" fill="#dee6e2" stroke="#dee6e2" stroke-width="1.51"/><path d="M240,400L216,507L341,463Z" fill="#c1d6cc" stroke="#c1d6cc" stroke-width="1.51"/><path d="M158,387L216,507L240,400Z" fill="#c4d8ce" stroke="#c4d8ce" stroke-width="1.51"/><path d="M865,907L968,895L933,866Z" fill="#d9e5df" stroke="#d9e5df" stroke-width="1.51"/><path d="M933,866L968,895L1002,816Z" fill="#dee7e2" stroke="#dee7e2" stroke-width="1.51"/><path d="M1190,821L1206,740L1085,728Z" fill="#efefef" stroke="#efefef" stroke-width="1.51"/><path d="M876,980L968,895L865,907Z" fill="#d8e5df" stroke="#d8e5df" stroke-width="1.51"/><path d="M327,750L406,848L445,738Z" fill="#e4e9e6" stroke="#e4e9e6" stroke-width="1.51"/><path d="M870,-44L753,-79L780,-13Z" fill="#cedfd7" stroke="#cedfd7" stroke-width="1.51"/><path d="M477,-35L397,30L495,31Z" fill="#e0e8e4" stroke="#e0e8e4" stroke-width="1.51"/><path d="M327,750L324,806L406,848Z" fill="#e9eceb" stroke="#e9eceb" stroke-width="1.51"/><path d="M218,741L268,690L167,667Z" fill="#e8ecea" stroke="#e8ecea" stroke-width="1.51"/><path d="M1304,575L1250,478L1193,557Z" fill="#cfdfd7" stroke="#cfdfd7" stroke-width="1.51"/><path d="M263,244L214,325L347,317Z" fill="#d8e2dd" stroke="#d8e2dd" stroke-width="1.51"/><path d="M495,31L397,30L442,163Z" fill="#e0e7e4" stroke="#e0e7e4" stroke-width="1.51"/><path d="M477,-35L495,31L587,-6Z" fill="#d9e5df" stroke="#d9e5df" stroke-width="1.51"/><path d="M1283,296L1204,351L1224,377Z" fill="#d2e0d9" stroke="#d2e0d9" stroke-width="1.51"/><path d="M1283,296L1209,230L1204,351Z" fill="#dae4df" stroke="#dae4df" stroke-width="1.51"/><path d="M160,242L191,332L214,325Z" fill="#d9e4df" stroke="#d9e4df" stroke-width="1.51"/><path d="M397,30L303,126L442,163Z" fill="#e6eae8" stroke="#e6eae8" stroke-width="1.51"/><path d="M470,913L589,824L478,807Z" fill="#d9e4df" stroke="#d9e4df" stroke-width="1.51"/><path d="M491,-105L477,-35L587,-6Z" fill="#dbe6e1" stroke="#dbe6e1" stroke-width="1.51"/><path d="M406,848L470,913L478,807Z" fill="#dfe8e4" stroke="#dfe8e4" stroke-width="1.51"/><path d="M406,848L444,912L470,913Z" fill="#e2e9e6" stroke="#e2e9e6" stroke-width="1.51"/><path d="M268,817L324,806L327,750Z" fill="#eeefee" stroke="#eeefee" stroke-width="1.51"/><path d="M214,325L191,332L240,400Z" fill="#d0dfd8" stroke="#d0dfd8" stroke-width="1.51"/><path d="M160,242L214,325L263,244Z" fill="#dde6e2" stroke="#dde6e2" stroke-width="1.51"/><path d="M303,126L245,180L349,213Z" fill="#eaeceb" stroke="#eaeceb" stroke-width="1.51"/><path d="M169,120L245,180L303,126Z" fill="#f0f0f0" stroke="#f0f0f0" stroke-width="1.51"/><path d="M303,927L444,912L406,848Z" fill="#e8edeb" stroke="#e8edeb" stroke-width="1.51"/><path d="M470,913L479,982L574,950Z" fill="#dce7e1" stroke="#dce7e1" stroke-width="1.51"/><path d="M1250,478L1279,412L1224,377Z" fill="#c6dad0" stroke="#c6dad0" stroke-width="1.51"/><path d="M1370,479L1279,412L1250,478Z" fill="#c3d8ce" stroke="#c3d8ce" stroke-width="1.51"/><path d="M397,30L343,37L303,126Z" fill="#eaedec" stroke="#eaedec" stroke-width="1.51"/><path d="M340,-11L343,37L397,30Z" fill="#eaeeec" stroke="#eaeeec" stroke-width="1.51"/><path d="M779,998L876,980L771,939Z" fill="#cfe0d8" stroke="#cfe0d8" stroke-width="1.51"/><path d="M771,939L876,980L865,907Z" fill="#d1e1da" stroke="#d1e1da" stroke-width="1.51"/><path d="M696,1029L771,939L699,900Z" fill="#c5dbd0" stroke="#c5dbd0" stroke-width="1.51"/><path d="M1209,230L1220,172L1094,215Z" fill="#e6eae8" stroke="#e6eae8" stroke-width="1.51"/><path d="M1092,-15L1032,-42L1041,69Z" fill="#e8edeb" stroke="#e8edeb" stroke-width="1.51"/><path d="M1284,225L1220,172L1209,230Z" fill="#e7ebe9" stroke="#e7ebe9" stroke-width="1.51"/><path d="M753,-79L651,-119L706,-9Z" fill="#c7dcd2" stroke="#c7dcd2" stroke-width="1.51"/><path d="M828,-135L651,-119L753,-79Z" fill="#c9ded4" stroke="#c9ded4" stroke-width="1.51"/><path d="M1121,850L1002,816L1020,954Z" fill="#e6ece9" stroke="#e6ece9" stroke-width="1.51"/><path d="M1121,850L1008,767L1002,816Z" fill="#e4eae7" stroke="#e4eae7" stroke-width="1.51"/><path d="M1180,651L1267,671L1193,557Z" fill="#dce5e1" stroke="#dce5e1" stroke-width="1.51"/><path d="M651,-119L597,-112L587,-6Z" fill="#d2e2da" stroke="#d2e2da" stroke-width="1.51"/><path d="M477,-35L410,-39L397,30Z" fill="#e4ebe8" stroke="#e4ebe8" stroke-width="1.51"/><path d="M1220,172L1167,83L1094,151Z" fill="#efefef" stroke="#efefef" stroke-width="1.51"/><path d="M1020,954L1002,816L968,895Z" fill="#e1e9e5" stroke="#e1e9e5" stroke-width="1.51"/><path d="M870,-44L828,-135L753,-79Z" fill="#d0e1d9" stroke="#d0e1d9" stroke-width="1.51"/><path d="M948,-13L964,-99L870,-44Z" fill="#dce7e2" stroke="#dce7e2" stroke-width="1.51"/><path d="M1092,-15L1041,69L1075,87Z" fill="#e8ecea" stroke="#e8ecea" stroke-width="1.51"/><path d="M191,332L158,387L240,400Z" fill="#cdddd6" stroke="#cdddd6" stroke-width="1.51"/><path d="M167,667L268,690L240,545Z" fill="#dde6e2" stroke="#dde6e2" stroke-width="1.51"/><path d="M79,389L158,387L80,294Z" fill="#d2e1d9" stroke="#d2e1d9" stroke-width="1.51"/><path d="M491,-105L410,-39L477,-35Z" fill="#e2eae6" stroke="#e2eae6" stroke-width="1.51"/><path d="M1279,412L1283,296L1224,377Z" fill="#cfdfd7" stroke="#cfdfd7" stroke-width="1.51"/><path d="M1167,83L1092,-15L1075,87Z" fill="#edefee" stroke="#edefee" stroke-width="1.51"/><path d="M964,-99L828,-135L870,-44Z" fill="#d8e6df" stroke="#d8e6df" stroke-width="1.51"/><path d="M992,-80L948,-13L1032,-42Z" fill="#e2eae6" stroke="#e2eae6" stroke-width="1.51"/><path d="M1114,-145L992,-80L1032,-42Z" fill="#eaefec" stroke="#eaefec" stroke-width="1.51"/><path d="M1263,741L1267,671L1206,740Z" fill="#ebedec" stroke="#ebedec" stroke-width="1.51"/><path d="M1206,740L1267,671L1180,651Z" fill="#e6eae8" stroke="#e6eae8" stroke-width="1.51"/><path d="M992,-80L964,-99L948,-13Z" fill="#e0e9e5" stroke="#e0e9e5" stroke-width="1.51"/><path d="M1114,-145L964,-99L992,-80Z" fill="#e8eeeb" stroke="#e8eeeb" stroke-width="1.51"/><path d="M779,998L924,1020L876,980Z" fill="#d5e4dd" stroke="#d5e4dd" stroke-width="1.51"/><path d="M574,950L696,1029L699,900Z" fill="#ccded5" stroke="#ccded5" stroke-width="1.51"/><path d="M590,1022L696,1029L574,950Z" fill="#d1e2da" stroke="#d1e2da" stroke-width="1.51"/><path d="M268,690L218,741L327,750Z" fill="#ebedec" stroke="#ebedec" stroke-width="1.51"/><path d="M324,806L303,927L406,848Z" fill="#eceeed" stroke="#eceeed" stroke-width="1.51"/><path d="M127,596L240,545L216,507Z" fill="#d1dfd8" stroke="#d1dfd8" stroke-width="1.51"/><path d="M924,1020L1020,954L968,895Z" fill="#e0eae5" stroke="#e0eae5" stroke-width="1.51"/><path d="M924,1020L968,895L876,980Z" fill="#dbe7e1" stroke="#dbe7e1" stroke-width="1.51"/><path d="M158,387L136,488L216,507Z" fill="#c3d8ce" stroke="#c3d8ce" stroke-width="1.51"/><path d="M1267,671L1304,575L1193,557Z" fill="#d9e4df" stroke="#d9e4df" stroke-width="1.51"/><path d="M1279,412L1380,306L1283,296Z" fill="#d4e2db" stroke="#d4e2db" stroke-width="1.51"/><path d="M399,-139L597,-112L651,-119Z" fill="#d9e6e0" stroke="#d9e6e0" stroke-width="1.51"/><path d="M399,-139L491,-105L597,-112Z" fill="#dfe9e4" stroke="#dfe9e4" stroke-width="1.51"/><path d="M597,-112L491,-105L587,-6Z" fill="#d7e5de" stroke="#d7e5de" stroke-width="1.51"/><path d="M262,-8L340,-11L317,-79Z" fill="#f2f3f2" stroke="#f2f3f2" stroke-width="1.51"/><path d="M410,-39L340,-11L397,30Z" fill="#e8edeb" stroke="#e8edeb" stroke-width="1.51"/><path d="M343,37L265,40L303,126Z" fill="#eff0ef" stroke="#eff0ef" stroke-width="1.51"/><path d="M218,741L268,817L327,750Z" fill="#f0f0f0" stroke="#f0f0f0" stroke-width="1.51"/><path d="M445,981L479,982L470,913Z" fill="#e1eae5" stroke="#e1eae5" stroke-width="1.51"/><path d="M445,981L470,913L444,912Z" fill="#e2eae6" stroke="#e2eae6" stroke-width="1.51"/><path d="M1283,296L1284,225L1209,230Z" fill="#e1e8e4" stroke="#e1e8e4" stroke-width="1.51"/><path d="M1220,172L1259,122L1167,83Z" fill="#f0f0f0" stroke="#f0f0f0" stroke-width="1.51"/><path d="M1167,83L1214,8L1092,-15Z" fill="#f2f2f2" stroke="#f2f2f2" stroke-width="1.51"/><path d="M1347,231L1284,225L1283,296Z" fill="#e2e9e5" stroke="#e2e9e5" stroke-width="1.51"/><path d="M479,982L590,1022L574,950Z" fill="#d8e5df" stroke="#d8e5df" stroke-width="1.51"/><path d="M245,180L160,242L263,244Z" fill="#e4e9e7" stroke="#e4e9e7" stroke-width="1.51"/><path d="M42,473L101,573L136,488Z" fill="#cdded6" stroke="#cdded6" stroke-width="1.51"/><path d="M169,120L160,242L245,180Z" fill="#eceeed" stroke="#eceeed" stroke-width="1.51"/><path d="M1121,850L1190,821L1085,728Z" fill="#eeefee" stroke="#eeefee" stroke-width="1.51"/><path d="M1177,939L1190,821L1121,850Z" fill="#f2f2f2" stroke="#f2f2f2" stroke-width="1.51"/><path d="M127,596L167,667L240,545Z" fill="#d9e4df" stroke="#d9e4df" stroke-width="1.51"/><path d="M218,741L175,758L268,817Z" fill="#f0f0f0" stroke="#f0f0f0" stroke-width="1.51"/><path d="M479,982L445,981L590,1022Z" fill="#dee8e3" stroke="#dee8e3" stroke-width="1.51"/><path d="M303,927L445,981L444,912Z" fill="#e8edeb" stroke="#e8edeb" stroke-width="1.51"/><path d="M340,-11L265,40L343,37Z" fill="#eff1f0" stroke="#eff1f0" stroke-width="1.51"/><path d="M696,1029L924,1020L779,998Z" fill="#cfe1d8" stroke="#cfe1d8" stroke-width="1.51"/><path d="M1190,821L1263,741L1206,740Z" fill="#f0f0f0" stroke="#f0f0f0" stroke-width="1.51"/><path d="M1359,658L1348,581L1304,575Z" fill="#dbe6e1" stroke="#dbe6e1" stroke-width="1.51"/><path d="M1368,745L1267,671L1263,741Z" fill="#eceeed" stroke="#eceeed" stroke-width="1.51"/><path d="M1020,954L1120,913L1121,850Z" fill="#ecefed" stroke="#ecefed" stroke-width="1.51"/><path d="M1093,1008L1120,913L1020,954Z" fill="#ecf0ee" stroke="#ecf0ee" stroke-width="1.51"/><path d="M924,1020L1019,984L1020,954Z" fill="#e3ebe7" stroke="#e3ebe7" stroke-width="1.51"/><path d="M136,488L127,596L216,507Z" fill="#cfdfd7" stroke="#cfdfd7" stroke-width="1.51"/><path d="M1284,225L1259,122L1220,172Z" fill="#edefee" stroke="#edefee" stroke-width="1.51"/><path d="M268,817L303,927L324,806Z" fill="#f0f1f0" stroke="#f0f1f0" stroke-width="1.51"/><path d="M167,667L175,758L218,741Z" fill="#eceeed" stroke="#eceeed" stroke-width="1.51"/><path d="M104,725L175,758L167,667Z" fill="#eceeed" stroke="#eceeed" stroke-width="1.51"/><path d="M1304,575L1370,479L1250,478Z" fill="#ccddd5" stroke="#ccddd5" stroke-width="1.51"/><path d="M1359,658L1304,575L1267,671Z" fill="#dfe8e4" stroke="#dfe8e4" stroke-width="1.51"/><path d="M63,663L104,725L167,667Z" fill="#e8edea" stroke="#e8edea" stroke-width="1.51"/><path d="M136,488L101,573L127,596Z" fill="#d3e1da" stroke="#d3e1da" stroke-width="1.51"/><path d="M79,389L136,488L158,387Z" fill="#c7dbd1" stroke="#c7dbd1" stroke-width="1.51"/><path d="M80,294L158,387L191,332Z" fill="#d4e1db" stroke="#d4e1db" stroke-width="1.51"/><path d="M265,40L169,120L303,126Z" fill="#f1f1f1" stroke="#f1f1f1" stroke-width="1.51"/><path d="M1259,122L1251,65L1167,83Z" fill="#f2f2f2" stroke="#f2f2f2" stroke-width="1.51"/><path d="M1092,-15L1114,-145L1032,-42Z" fill="#ecf0ee" stroke="#ecf0ee" stroke-width="1.51"/><path d="M1357,34L1251,65L1259,122Z" fill="#f3f3f3" stroke="#f3f3f3" stroke-width="1.51"/><path d="M1348,581L1370,479L1304,575Z" fill="#d2e1da" stroke="#d2e1da" stroke-width="1.51"/><path d="M1284,225L1373,146L1259,122Z" fill="#eff0f0" stroke="#eff0f0" stroke-width="1.51"/><path d="M340,-11L262,-8L265,40Z" fill="#f2f2f2" stroke="#f2f2f2" stroke-width="1.51"/><path d="M165,-1L130,60L169,120Z" fill="#f4f4f4" stroke="#f4f4f4" stroke-width="1.51"/><path d="M317,-79L340,-11L410,-39Z" fill="#ecf0ee" stroke="#ecf0ee" stroke-width="1.51"/><path d="M238,900L303,927L268,817Z" fill="#f3f3f3" stroke="#f3f3f3" stroke-width="1.51"/><path d="M80,294L191,332L160,242Z" fill="#dbe5e0" stroke="#dbe5e0" stroke-width="1.51"/><path d="M1251,65L1214,8L1167,83Z" fill="#f2f2f2" stroke="#f2f2f2" stroke-width="1.51"/><path d="M1380,306L1347,231L1283,296Z" fill="#dee7e3" stroke="#dee7e3" stroke-width="1.51"/><path d="M399,-139L317,-79L410,-39Z" fill="#ebf0ed" stroke="#ebf0ed" stroke-width="1.51"/><path d="M169,120L98,235L160,242Z" fill="#e9edeb" stroke="#e9edeb" stroke-width="1.51"/><path d="M98,235L80,294L160,242Z" fill="#e1e9e5" stroke="#e1e9e5" stroke-width="1.51"/><path d="M491,-105L399,-139L410,-39Z" fill="#e5ede9" stroke="#e5ede9" stroke-width="1.51"/><path d="M828,-135L399,-139L651,-119Z" fill="#d1e2da" stroke="#d1e2da" stroke-width="1.51"/><path d="M1370,479L1391,394L1279,412Z" fill="#c7dbd1" stroke="#c7dbd1" stroke-width="1.51"/><path d="M1452,499L1391,394L1370,479Z" fill="#c5dad0" stroke="#c5dad0" stroke-width="1.51"/><path d="M1391,394L1380,306L1279,412Z" fill="#d0dfd8" stroke="#d0dfd8" stroke-width="1.51"/><path d="M1348,581L1438,551L1370,479Z" fill="#d2e1da" stroke="#d2e1da" stroke-width="1.51"/><path d="M1368,745L1359,658L1267,671Z" fill="#e9edeb" stroke="#e9edeb" stroke-width="1.51"/><path d="M1286,848L1263,741L1190,821Z" fill="#f2f2f2" stroke="#f2f2f2" stroke-width="1.51"/><path d="M180,857L238,900L268,817Z" fill="#f3f3f3" stroke="#f3f3f3" stroke-width="1.51"/><path d="M1120,913L1177,939L1121,850Z" fill="#f1f2f2" stroke="#f1f2f2" stroke-width="1.51"/><path d="M1093,1008L1177,939L1120,913Z" fill="#f2f3f2" stroke="#f2f3f2" stroke-width="1.51"/><path d="M1093,1008L1020,954L1019,984Z" fill="#e9eeec" stroke="#e9eeec" stroke-width="1.51"/><path d="M924,1020L1093,1008L1019,984Z" fill="#e6edea" stroke="#e6edea" stroke-width="1.51"/><path d="M175,758L180,857L268,817Z" fill="#f2f2f2" stroke="#f2f2f2" stroke-width="1.51"/><path d="M63,663L167,667L127,596Z" fill="#e1e8e5" stroke="#e1e8e5" stroke-width="1.51"/><path d="M63,663L127,596L101,573Z" fill="#dce6e1" stroke="#dce6e1" stroke-width="1.51"/><path d="M79,389L42,473L136,488Z" fill="#c3d9ce" stroke="#c3d9ce" stroke-width="1.51"/><path d="M12,390L42,473L79,389Z" fill="#c9dcd3" stroke="#c9dcd3" stroke-width="1.51"/><path d="M73,839L180,857L175,758Z" fill="#f3f3f3" stroke="#f3f3f3" stroke-width="1.51"/><path d="M1177,939L1286,848L1190,821Z" fill="#f3f3f3" stroke="#f3f3f3" stroke-width="1.51"/><path d="M237,1012L316,1000L303,927Z" fill="#f5f5f5" stroke="#f5f5f5" stroke-width="1.51"/><path d="M303,927L316,1000L445,981Z" fill="#edf0ef" stroke="#edf0ef" stroke-width="1.51"/><path d="M445,981L316,1000L590,1022Z" fill="#e4ece8" stroke="#e4ece8" stroke-width="1.51"/><path d="M237,1012L303,927L238,900Z" fill="#f4f4f4" stroke="#f4f4f4" stroke-width="1.51"/><path d="M1260,-56L1190,-84L1214,8Z" fill="#f5f5f5" stroke="#f5f5f5" stroke-width="1.51"/><path d="M1214,8L1190,-84L1092,-15Z" fill="#f3f3f3" stroke="#f3f3f3" stroke-width="1.51"/><path d="M964,-99L1114,-145L828,-135Z" fill="#e2ebe6" stroke="#e2ebe6" stroke-width="1.51"/><path d="M1260,-56L1214,8L1251,65Z" fill="#f4f4f4" stroke="#f4f4f4" stroke-width="1.51"/><path d="M-28,610L63,663L101,573Z" fill="#dee8e3" stroke="#dee8e3" stroke-width="1.51"/><path d="M128,937L238,900L180,857Z" fill="#f5f5f5" stroke="#f5f5f5" stroke-width="1.51"/><path d="M1190,-84L1114,-145L1092,-15Z" fill="#f3f4f3" stroke="#f3f4f3" stroke-width="1.51"/><path d="M828,-135L1114,-145L399,-139Z" fill="#cee0d7" stroke="#cee0d7" stroke-width="1.51"/><path d="M-38,304L12,390L80,294Z" fill="#d7e4de" stroke="#d7e4de" stroke-width="1.51"/><path d="M169,120L63,155L98,235Z" fill="#eff0f0" stroke="#eff0f0" stroke-width="1.51"/><path d="M165,-1L169,120L265,40Z" fill="#f3f3f3" stroke="#f3f3f3" stroke-width="1.51"/><path d="M165,-1L265,40L262,-8Z" fill="#f3f3f3" stroke="#f3f3f3" stroke-width="1.51"/><path d="M1347,231L1373,146L1284,225Z" fill="#eaeeec" stroke="#eaeeec" stroke-width="1.51"/><path d="M1446,172L1373,146L1347,231Z" fill="#eef0ef" stroke="#eef0ef" stroke-width="1.51"/><path d="M1421,252L1347,231L1380,306Z" fill="#e1e9e5" stroke="#e1e9e5" stroke-width="1.51"/><path d="M1359,658L1438,551L1348,581Z" fill="#dae6e0" stroke="#dae6e0" stroke-width="1.51"/><path d="M1360,831L1368,745L1263,741Z" fill="#f3f3f3" stroke="#f3f3f3" stroke-width="1.51"/><path d="M216,-100L262,-8L317,-79Z" fill="#f5f5f5" stroke="#f5f5f5" stroke-width="1.51"/><path d="M216,-100L165,-1L262,-8Z" fill="#f5f5f5" stroke="#f5f5f5" stroke-width="1.51"/><path d="M42,473L15,508L101,573Z" fill="#cfdfd8" stroke="#cfdfd8" stroke-width="1.51"/><path d="M12,390L15,508L42,473Z" fill="#c6dbd1" stroke="#c6dbd1" stroke-width="1.51"/><path d="M12,390L79,389L80,294Z" fill="#d3e2da" stroke="#d3e2da" stroke-width="1.51"/><path d="M-7,221L80,294L98,235Z" fill="#e3ebe7" stroke="#e3ebe7" stroke-width="1.51"/><path d="M1473,299L1380,306L1391,394Z" fill="#d7e4de" stroke="#d7e4de" stroke-width="1.51"/><path d="M1473,299L1421,252L1380,306Z" fill="#dee8e3" stroke="#dee8e3" stroke-width="1.51"/><path d="M1456,684L1438,551L1359,658Z" fill="#e1e9e5" stroke="#e1e9e5" stroke-width="1.51"/><path d="M130,60L63,155L169,120Z" fill="#f3f3f3" stroke="#f3f3f3" stroke-width="1.51"/><path d="M-7,221L63,155L-35,171Z" fill="#eef1f0" stroke="#eef1f0" stroke-width="1.51"/><path d="M1438,551L1452,499L1370,479Z" fill="#cedfd7" stroke="#cedfd7" stroke-width="1.51"/><path d="M1190,-84L1303,-126L1114,-145Z" fill="#f7f7f7" stroke="#f7f7f7" stroke-width="1.51"/><path d="M1357,34L1260,-56L1251,65Z" fill="#f5f5f5" stroke="#f5f5f5" stroke-width="1.51"/><path d="M1286,848L1360,831L1263,741Z" fill="#f3f3f3" stroke="#f3f3f3" stroke-width="1.51"/><path d="M1177,939L1297,928L1286,848Z" fill="#f5f5f5" stroke="#f5f5f5" stroke-width="1.51"/><path d="M1093,1008L1213,1001L1177,939Z" fill="#f5f5f5" stroke="#f5f5f5" stroke-width="1.51"/><path d="M1454,1005L1213,1001L1569,1024Z" fill="#fbfbfb" stroke="#fbfbfb" stroke-width="1.51"/><path d="M399,-139L216,-100L317,-79Z" fill="#f3f4f3" stroke="#f3f4f3" stroke-width="1.51"/><path d="M43,55L63,155L130,60Z" fill="#f4f4f4" stroke="#f4f4f4" stroke-width="1.51"/><path d="M1358,917L1360,831L1286,848Z" fill="#f5f5f5" stroke="#f5f5f5" stroke-width="1.51"/><path d="M1368,745L1456,684L1359,658Z" fill="#eaeeec" stroke="#eaeeec" stroke-width="1.51"/><path d="M1452,499L1475,407L1391,394Z" fill="#c8dcd2" stroke="#c8dcd2" stroke-width="1.51"/><path d="M1446,172L1347,231L1421,252Z" fill="#e8edeb" stroke="#e8edeb" stroke-width="1.51"/><path d="M1462,47L1357,34L1373,146Z" fill="#f5f5f5" stroke="#f5f5f5" stroke-width="1.51"/><path d="M1373,146L1357,34L1259,122Z" fill="#f3f3f3" stroke="#f3f3f3" stroke-width="1.51"/><path d="M1213,1001L1297,928L1177,939Z" fill="#f6f6f6" stroke="#f6f6f6" stroke-width="1.51"/><path d="M316,1000L237,1012L590,1022Z" fill="#ecf0ee" stroke="#ecf0ee" stroke-width="1.51"/><path d="M590,1022L141,1020L696,1029Z" fill="#e1ebe6" stroke="#e1ebe6" stroke-width="1.51"/><path d="M128,937L237,1012L238,900Z" fill="#f5f5f5" stroke="#f5f5f5" stroke-width="1.51"/><path d="M73,839L175,758L104,725Z" fill="#f2f2f2" stroke="#f2f2f2" stroke-width="1.51"/><path d="M63,663L13,684L104,725Z" fill="#e9eeeb" stroke="#e9eeeb" stroke-width="1.51"/><path d="M-28,610L13,684L63,663Z" fill="#e4ebe8" stroke="#e4ebe8" stroke-width="1.51"/><path d="M-28,610L101,573L15,508Z" fill="#d6e4dd" stroke="#d6e4dd" stroke-width="1.51"/><path d="M1475,407L1473,299L1391,394Z" fill="#d2e2da" stroke="#d2e2da" stroke-width="1.51"/><path d="M-85,592L-28,610L15,508Z" fill="#d8e5df" stroke="#d8e5df" stroke-width="1.51"/><path d="M63,155L-7,221L98,235Z" fill="#eaefed" stroke="#eaefed" stroke-width="1.51"/><path d="M43,55L130,60L55,-8Z" fill="#f6f6f6" stroke="#f6f6f6" stroke-width="1.51"/><path d="M11,758L73,839L104,725Z" fill="#f3f3f3" stroke="#f3f3f3" stroke-width="1.51"/><path d="M1510,267L1446,172L1421,252Z" fill="#e7edea" stroke="#e7edea" stroke-width="1.51"/><path d="M1438,551L1511,498L1452,499Z" fill="#d0e1d9" stroke="#d0e1d9" stroke-width="1.51"/><path d="M1452,499L1511,498L1475,407Z" fill="#c9ddd3" stroke="#c9ddd3" stroke-width="1.51"/><path d="M1466,777L1456,684L1368,745Z" fill="#f1f2f2" stroke="#f1f2f2" stroke-width="1.51"/><path d="M1507,662L1456,684L1540,720Z" fill="#ebf0ee" stroke="#ebf0ee" stroke-width="1.51"/><path d="M-85,592L15,508L-103,483Z" fill="#d2e2db" stroke="#d2e2db" stroke-width="1.51"/><path d="M13,684L11,758L104,725Z" fill="#eff1f0" stroke="#eff1f0" stroke-width="1.51"/><path d="M-7,221L-38,304L80,294Z" fill="#e0e9e5" stroke="#e0e9e5" stroke-width="1.51"/><path d="M73,839L128,937L180,857Z" fill="#f5f5f5" stroke="#f5f5f5" stroke-width="1.51"/><path d="M73,839L97,947L128,937Z" fill="#f6f6f6" stroke="#f6f6f6" stroke-width="1.51"/><path d="M-130,737L11,758L13,684Z" fill="#f1f3f2" stroke="#f1f3f2" stroke-width="1.51"/><path d="M55,-8L130,60L165,-1Z" fill="#f5f5f5" stroke="#f5f5f5" stroke-width="1.51"/><path d="M-7,221L-75,229L-38,304Z" fill="#e5ece8" stroke="#e5ece8" stroke-width="1.51"/><path d="M1526,342L1510,267L1473,299Z" fill="#dde8e3" stroke="#dde8e3" stroke-width="1.51"/><path d="M1546,580L1511,498L1438,551Z" fill="#d5e4dc" stroke="#d5e4dc" stroke-width="1.51"/><path d="M1297,928L1358,917L1286,848Z" fill="#f6f6f6" stroke="#f6f6f6" stroke-width="1.51"/><path d="M1370,978L1358,917L1297,928Z" fill="#f7f7f7" stroke="#f7f7f7" stroke-width="1.51"/><path d="M216,-100L166,-122L165,-1Z" fill="#f7f7f7" stroke="#f7f7f7" stroke-width="1.51"/><path d="M399,-139L166,-122L216,-100Z" fill="#f6f6f6" stroke="#f6f6f6" stroke-width="1.51"/><path d="M1357,34L1380,-15L1260,-56Z" fill="#f6f6f6" stroke="#f6f6f6" stroke-width="1.51"/><path d="M1260,-56L1303,-126L1190,-84Z" fill="#f7f7f7" stroke="#f7f7f7" stroke-width="1.51"/><path d="M1462,47L1380,-15L1357,34Z" fill="#f7f7f7" stroke="#f7f7f7" stroke-width="1.51"/><path d="M1446,172L1462,47L1373,146Z" fill="#f4f4f4" stroke="#f4f4f4" stroke-width="1.51"/><path d="M1473,299L1510,267L1421,252Z" fill="#e1eae6" stroke="#e1eae6" stroke-width="1.51"/><path d="M1526,342L1473,299L1475,407Z" fill="#d6e4dd" stroke="#d6e4dd" stroke-width="1.51"/><path d="M1213,1001L1308,995L1297,928Z" fill="#f7f7f7" stroke="#f7f7f7" stroke-width="1.51"/><path d="M1454,1005L1308,995L1213,1001Z" fill="#f8f8f8" stroke="#f8f8f8" stroke-width="1.51"/><path d="M1533,419L1526,342L1475,407Z" fill="#d0e1d8" stroke="#d0e1d8" stroke-width="1.51"/><path d="M1511,498L1533,419L1475,407Z" fill="#c8dcd2" stroke="#c8dcd2" stroke-width="1.51"/><path d="M-2,61L-35,171L63,155Z" fill="#f4f4f4" stroke="#f4f4f4" stroke-width="1.51"/><path d="M48,-105L55,-8L165,-1Z" fill="#f7f7f7" stroke="#f7f7f7" stroke-width="1.51"/><path d="M-2,61L63,155L43,55Z" fill="#f5f5f5" stroke="#f5f5f5" stroke-width="1.51"/><path d="M1380,-15L1303,-126L1260,-56Z" fill="#f7f7f7" stroke="#f7f7f7" stroke-width="1.51"/><path d="M63,981L97,947L-35,943Z" fill="#f9f9f9" stroke="#f9f9f9" stroke-width="1.51"/><path d="M128,937L141,1020L237,1012Z" fill="#f7f7f7" stroke="#f7f7f7" stroke-width="1.51"/><path d="M1456,684L1507,662L1438,551Z" fill="#e2ebe6" stroke="#e2ebe6" stroke-width="1.51"/><path d="M1511,498L1546,580L1533,419Z" fill="#cee0d7" stroke="#cee0d7" stroke-width="1.51"/><path d="M1466,777L1368,745L1360,831Z" fill="#f4f4f4" stroke="#f4f4f4" stroke-width="1.51"/><path d="M1441,867L1360,831L1358,917Z" fill="#f6f6f6" stroke="#f6f6f6" stroke-width="1.51"/><path d="M1441,867L1466,777L1360,831Z" fill="#f6f6f6" stroke="#f6f6f6" stroke-width="1.51"/><path d="M55,-8L-2,61L43,55Z" fill="#f6f6f6" stroke="#f6f6f6" stroke-width="1.51"/><path d="M237,1012L141,1020L590,1022Z" fill="#f2f4f3" stroke="#f2f4f3" stroke-width="1.51"/><path d="M97,947L141,1020L128,937Z" fill="#f7f7f7" stroke="#f7f7f7" stroke-width="1.51"/><path d="M-28,610L-127,645L13,684Z" fill="#e4ece8" stroke="#e4ece8" stroke-width="1.51"/><path d="M-35,943L97,947L73,839Z" fill="#f7f7f7" stroke="#f7f7f7" stroke-width="1.51"/><path d="M-103,483L15,508L12,390Z" fill="#c7dcd2" stroke="#c7dcd2" stroke-width="1.51"/><path d="M-103,483L12,390L-105,374Z" fill="#ccdfd5" stroke="#ccdfd5" stroke-width="1.51"/><path d="M-35,171L-75,229L-7,221Z" fill="#ebf0ee" stroke="#ebf0ee" stroke-width="1.51"/><path d="M-94,120L-75,229L-35,171Z" fill="#f1f3f2" stroke="#f1f3f2" stroke-width="1.51"/><path d="M-105,374L12,390L-38,304Z" fill="#d4e3dc" stroke="#d4e3dc" stroke-width="1.51"/><path d="M1540,720L1546,580L1507,662Z" fill="#e6edea" stroke="#e6edea" stroke-width="1.51"/><path d="M1507,662L1546,580L1438,551Z" fill="#dde8e3" stroke="#dde8e3" stroke-width="1.51"/><path d="M1426,918L1441,867L1358,917Z" fill="#f7f7f7" stroke="#f7f7f7" stroke-width="1.51"/><path d="M1466,777L1540,720L1456,684Z" fill="#f1f3f2" stroke="#f1f3f2" stroke-width="1.51"/><path d="M1515,115L1462,47L1446,172Z" fill="#f6f6f6" stroke="#f6f6f6" stroke-width="1.51"/><path d="M1380,-15L1373,-123L1303,-126Z" fill="#f8f8f8" stroke="#f8f8f8" stroke-width="1.51"/><path d="M-134,327L-105,374L-38,304Z" fill="#d9e6df" stroke="#d9e6df" stroke-width="1.51"/><path d="M1308,995L1370,978L1297,928Z" fill="#f7f7f7" stroke="#f7f7f7" stroke-width="1.51"/><path d="M1370,978L1426,918L1358,917Z" fill="#f8f8f8" stroke="#f8f8f8" stroke-width="1.51"/><path d="M1543,808L1540,720L1466,777Z" fill="#f6f6f6" stroke="#f6f6f6" stroke-width="1.51"/><path d="M1510,267L1515,115L1446,172Z" fill="#eff2f1" stroke="#eff2f1" stroke-width="1.51"/><path d="M1548,63L1515,115L1510,267Z" fill="#f6f6f6" stroke="#f6f6f6" stroke-width="1.51"/><path d="M1548,63L1510,267L1526,342Z" fill="#eaefed" stroke="#eaefed" stroke-width="1.51"/><path d="M1548,63L1526,342L1533,419Z" fill="#e2ebe7" stroke="#e2ebe7" stroke-width="1.51"/><path d="M1515,-22L1463,4L1462,47Z" fill="#f8f8f8" stroke="#f8f8f8" stroke-width="1.51"/><path d="M1462,47L1463,4L1380,-15Z" fill="#f7f7f7" stroke="#f7f7f7" stroke-width="1.51"/><path d="M97,947L63,981L141,1020Z" fill="#f8f8f8" stroke="#f8f8f8" stroke-width="1.51"/><path d="M-35,834L73,839L11,758Z" fill="#f5f5f5" stroke="#f5f5f5" stroke-width="1.51"/><path d="M1462,-132L1373,-123L1380,-15Z" fill="#fafafa" stroke="#fafafa" stroke-width="1.51"/><path d="M1303,-126L1462,-132L1114,-145Z" fill="#f9f9f9" stroke="#f9f9f9" stroke-width="1.51"/><path d="M-130,737L-35,834L11,758Z" fill="#f6f6f6" stroke="#f6f6f6" stroke-width="1.51"/><path d="M1543,808L1466,777L1441,867Z" fill="#f6f6f6" stroke="#f6f6f6" stroke-width="1.51"/><path d="M-75,229L-134,327L-38,304Z" fill="#e0eae5" stroke="#e0eae5" stroke-width="1.51"/><path d="M-105,374L-134,327L-103,483Z" fill="#d0e1d9" stroke="#d0e1d9" stroke-width="1.51"/><path d="M-103,483L-127,645L-85,592Z" fill="#dae7e1" stroke="#dae7e1" stroke-width="1.51"/><path d="M-94,120L-134,327L-75,229Z" fill="#eaefec" stroke="#eaefec" stroke-width="1.51"/><path d="M-2,61L-94,120L-35,171Z" fill="#f6f6f6" stroke="#f6f6f6" stroke-width="1.51"/><path d="M55,-8L-39,-23L-2,61Z" fill="#f7f7f7" stroke="#f7f7f7" stroke-width="1.51"/><path d="M166,-122L48,-105L165,-1Z" fill="#f8f8f8" stroke="#f8f8f8" stroke-width="1.51"/><path d="M-85,592L-127,645L-28,610Z" fill="#e0eae5" stroke="#e0eae5" stroke-width="1.51"/><path d="M-134,327L-127,645L-103,483Z" fill="#cde0d6" stroke="#cde0d6" stroke-width="1.51"/><path d="M-115,74L-94,120L-2,61Z" fill="#f7f7f7" stroke="#f7f7f7" stroke-width="1.51"/><path d="M48,-105L-39,-23L55,-8Z" fill="#f9f9f9" stroke="#f9f9f9" stroke-width="1.51"/><path d="M1540,720L1543,808L1546,580Z" fill="#eef2f0" stroke="#eef2f0" stroke-width="1.51"/><path d="M1527,896L1543,808L1441,867Z" fill="#f8f8f8" stroke="#f8f8f8" stroke-width="1.51"/><path d="M1527,896L1441,867L1426,918Z" fill="#f8f8f8" stroke="#f8f8f8" stroke-width="1.51"/><path d="M1515,115L1548,63L1462,47Z" fill="#f7f7f7" stroke="#f7f7f7" stroke-width="1.51"/><path d="M1463,4L1462,-132L1380,-15Z" fill="#f9f9f9" stroke="#f9f9f9" stroke-width="1.51"/><path d="M1546,580L1548,63L1533,419Z" fill="#d6e4dd" stroke="#d6e4dd" stroke-width="1.51"/><path d="M-35,834L-35,943L73,839Z" fill="#f7f7f7" stroke="#f7f7f7" stroke-width="1.51"/><path d="M-127,645L-130,737L13,684Z" fill="#ecf0ee" stroke="#ecf0ee" stroke-width="1.51"/><path d="M-134,327L-130,737L-127,645Z" fill="#dae7e1" stroke="#dae7e1" stroke-width="1.51"/><path d="M-83,939L-35,943L-35,834Z" fill="#f9f9f9" stroke="#f9f9f9" stroke-width="1.51"/><path d="M63,981L16,1020L141,1020Z" fill="#f9f9f9" stroke="#f9f9f9" stroke-width="1.51"/><path d="M1548,63L1515,-22L1462,47Z" fill="#f8f8f8" stroke="#f8f8f8" stroke-width="1.51"/><path d="M-35,943L16,1020L63,981Z" fill="#fafafa" stroke="#fafafa" stroke-width="1.51"/><path d="M141,1020L-102,1021L696,1029Z" fill="#f7f7f7" stroke="#f7f7f7" stroke-width="1.51"/><path d="M-39,-23L-115,74L-2,61Z" fill="#f8f8f8" stroke="#f8f8f8" stroke-width="1.51"/><path d="M-94,120L-115,74L-134,327Z" fill="#f2f4f3" stroke="#f2f4f3" stroke-width="1.51"/><path d="M1370,978L1454,1005L1426,918Z" fill="#f9f9f9" stroke="#f9f9f9" stroke-width="1.51"/><path d="M1308,995L1454,1005L1370,978Z" fill="#f9f9f9" stroke="#f9f9f9" stroke-width="1.51"/><path d="M1569,1024L1213,1001L1093,1008Z" fill="#f8f8f8" stroke="#f8f8f8" stroke-width="1.51"/><path d="M1569,1024L1093,1008L924,1020Z" fill="#f7f7f7" stroke="#f7f7f7" stroke-width="1.51"/><path d="M1454,1005L1527,896L1426,918Z" fill="#fafafa" stroke="#fafafa" stroke-width="1.51"/><path d="M1515,-22L1462,-132L1463,4Z" fill="#fafafa" stroke="#fafafa" stroke-width="1.51"/><path d="M1373,-123L1462,-132L1303,-126Z" fill="#fafafa" stroke="#fafafa" stroke-width="1.51"/><path d="M-35,943L-102,1021L16,1020Z" fill="#fbfbfb" stroke="#fbfbfb" stroke-width="1.51"/><path d="M-130,737L-125,848L-35,834Z" fill="#f7f7f7" stroke="#f7f7f7" stroke-width="1.51"/><path d="M-39,-23L-111,-49L-115,74Z" fill="#fafafa" stroke="#fafafa" stroke-width="1.51"/><path d="M48,-105L-39,-119L-39,-23Z" fill="#fafafa" stroke="#fafafa" stroke-width="1.51"/><path d="M166,-122L-39,-119L48,-105Z" fill="#fafafa" stroke="#fafafa" stroke-width="1.51"/><path d="M-97,-127L-39,-119L166,-122Z" fill="#fbfbfb" stroke="#fbfbfb" stroke-width="1.51"/><path d="M-125,848L-83,939L-35,834Z" fill="#f9f9f9" stroke="#f9f9f9" stroke-width="1.51"/><path d="M-39,-119L-111,-49L-39,-23Z" fill="#fbfbfb" stroke="#fbfbfb" stroke-width="1.51"/><path d="M-115,74L-111,-49L-134,327Z" fill="#f7f7f7" stroke="#f7f7f7" stroke-width="1.51"/><path d="M1515,-22L1540,-100L1462,-132Z" fill="#fbfbfb" stroke="#fbfbfb" stroke-width="1.51"/><path d="M1548,63L1540,-100L1515,-22Z" fill="#fafafa" stroke="#fafafa" stroke-width="1.51"/><path d="M-39,-119L-97,-127L-111,-49Z" fill="#fcfcfc" stroke="#fcfcfc" stroke-width="1.51"/><path d="M399,-139L-97,-127L166,-122Z" fill="#f9f9f9" stroke="#f9f9f9" stroke-width="1.51"/><path d="M-125,848L-102,1021L-83,939Z" fill="#fbfbfb" stroke="#fbfbfb" stroke-width="1.51"/><path d="M-83,939L-102,1021L-35,943Z" fill="#fbfbfb" stroke="#fbfbfb" stroke-width="1.51"/><path d="M16,1020L-102,1021L141,1020Z" fill="#fbfbfb" stroke="#fbfbfb" stroke-width="1.51"/><path d="M1454,1005L1569,1024L1527,896Z" fill="#fbfbfb" stroke="#fbfbfb" stroke-width="1.51"/><path d="M1527,896L1569,1024L1543,808Z" fill="#fafafa" stroke="#fafafa" stroke-width="1.51"/><path d="M1543,808L1569,1024L1546,580Z" fill="#f8f8f8" stroke="#f8f8f8" stroke-width="1.51"/><path d="M1546,580L1569,1024L1548,63Z" fill="#d8e6df" stroke="#d8e6df" stroke-width="1.51"/><path d="M696,1029L1569,1024L924,1020Z" fill="#ecf0ee" stroke="#ecf0ee" stroke-width="1.51"/></svg>