<svg xmlns="http://www.w3.org/2000/svg" width="1440" height="900"><path d="M695,412L752,473L764,421Z" fill="#93bda9" stroke="#93bda9" stroke-width="1.51"/><path d="M695,412L670,484L752,473Z" fill="#93bca8" stroke="#93bca8" stroke-width="1.51"/><path d="M764,421L733,330L695,412Z" fill="#96bea9" stroke="#96bea9" stroke-width="1.51"/><path d="M752,473L832,477L764,421Z" fill="#95bda9" stroke="#95bda9" stroke-width="1.51"/><path d="M764,421L862,352L733,330Z" fill="#9bbfab" stroke="#9bbfab" stroke-width="1.51"/><path d="M773,579L832,477L752,473Z" fill="#99beaa" stroke="#99beaa" stroke-width="1.51"/><path d="M695,412L598,393L670,484Z" fill="#96bea9" stroke="#96bea9" stroke-width="1.51"/><path d="M702,302L598,393L695,412Z" fill="#9abfab" stroke="#9abfab" stroke-width="1.51"/><path d="M733,330L702,302L695,412Z" fill="#99bfaa" stroke="#99bfaa" stroke-width="1.51"/><path d="M832,477L867,402L764,421Z" fill="#98bfaa" stroke="#98bfaa" stroke-width="1.51"/><path d="M737,226L695,239L702,302Z" fill="#a0c1ac" stroke="#a0c1ac" stroke-width="1.51"/><path d="M670,484L773,579L752,473Z" fill="#96bea9" stroke="#96bea9" stroke-width="1.51"/><path d="M867,402L862,352L764,421Z" fill="#9cc0ab" stroke="#9cc0ab" stroke-width="1.51"/><path d="M670,484L706,612L773,579Z" fill="#99bfaa" stroke="#99bfaa" stroke-width="1.51"/><path d="M598,393L572,508L670,484Z" fill="#98bfaa" stroke="#98bfaa" stroke-width="1.51"/><path d="M556,567L706,612L670,484Z" fill="#9dc0ab" stroke="#9dc0ab" stroke-width="1.51"/><path d="M773,579L855,567L832,477Z" fill="#9dc1ab" stroke="#9dc1ab" stroke-width="1.51"/><path d="M832,477L907,498L867,402Z" fill="#99bfaa" stroke="#99bfaa" stroke-width="1.51"/><path d="M902,605L855,567L870,669Z" fill="#a5c3ae" stroke="#a5c3ae" stroke-width="1.51"/><path d="M867,402L904,374L862,352Z" fill="#9fc1ac" stroke="#9fc1ac" stroke-width="1.51"/><path d="M907,498L904,374L867,402Z" fill="#9cc0ab" stroke="#9cc0ab" stroke-width="1.51"/><path d="M855,567L907,498L832,477Z" fill="#9ec0ac" stroke="#9ec0ac" stroke-width="1.51"/><path d="M702,302L582,298L598,393Z" fill="#9fc1ac" stroke="#9fc1ac" stroke-width="1.51"/><path d="M598,393L501,400L572,508Z" fill="#9bc0ab" stroke="#9bc0ab" stroke-width="1.51"/><path d="M702,302L695,239L582,298Z" fill="#a1c1ad" stroke="#a1c1ad" stroke-width="1.51"/><path d="M737,226L702,302L733,330Z" fill="#9dc0ac" stroke="#9dc0ac" stroke-width="1.51"/><path d="M737,226L733,330L870,263Z" fill="#a1c2ad" stroke="#a1c2ad" stroke-width="1.51"/><path d="M572,508L556,567L670,484Z" fill="#9dc0ab" stroke="#9dc0ab" stroke-width="1.51"/><path d="M471,506L556,567L572,508Z" fill="#a0c2ad" stroke="#a0c2ad" stroke-width="1.51"/><path d="M870,263L733,330L862,352Z" fill="#a1c2ac" stroke="#a1c2ac" stroke-width="1.51"/><path d="M938,310L870,263L862,352Z" fill="#a5c3ae" stroke="#a5c3ae" stroke-width="1.51"/><path d="M582,298L501,400L598,393Z" fill="#a0c1ad" stroke="#a0c1ad" stroke-width="1.51"/><path d="M855,567L902,605L907,498Z" fill="#a2c1ad" stroke="#a2c1ad" stroke-width="1.51"/><path d="M870,669L855,567L773,579Z" fill="#a3c2ad" stroke="#a3c2ad" stroke-width="1.51"/><path d="M706,612L770,680L773,579Z" fill="#a0c1ac" stroke="#a0c1ac" stroke-width="1.51"/><path d="M657,691L770,680L706,612Z" fill="#a1c2ad" stroke="#a1c2ad" stroke-width="1.51"/><path d="M1023,427L904,374L907,498Z" fill="#9ec1ac" stroke="#9ec1ac" stroke-width="1.51"/><path d="M1023,427L938,310L904,374Z" fill="#a3c2ae" stroke="#a3c2ae" stroke-width="1.51"/><path d="M904,374L938,310L862,352Z" fill="#a3c2ad" stroke="#a3c2ad" stroke-width="1.51"/><path d="M582,298L482,289L501,400Z" fill="#a5c3ae" stroke="#a5c3ae" stroke-width="1.51"/><path d="M695,239L583,229L582,298Z" fill="#a5c3ae" stroke="#a5c3ae" stroke-width="1.51"/><path d="M657,128L583,229L695,239Z" fill="#a8c4af" stroke="#a8c4af" stroke-width="1.51"/><path d="M559,664L657,691L706,612Z" fill="#a4c3ae" stroke="#a4c3ae" stroke-width="1.51"/><path d="M501,400L471,506L572,508Z" fill="#9dc0ac" stroke="#9dc0ac" stroke-width="1.51"/><path d="M556,567L559,664L706,612Z" fill="#a3c2ae" stroke="#a3c2ae" stroke-width="1.51"/><path d="M770,680L870,669L773,579Z" fill="#a4c3ae" stroke="#a4c3ae" stroke-width="1.51"/><path d="M737,226L761,167L695,239Z" fill="#a3c2ad" stroke="#a3c2ad" stroke-width="1.51"/><path d="M870,263L761,167L737,226Z" fill="#a6c3ae" stroke="#a6c3ae" stroke-width="1.51"/><path d="M818,146L761,167L870,263Z" fill="#a9c4af" stroke="#a9c4af" stroke-width="1.51"/><path d="M902,605L994,524L907,498Z" fill="#a3c2ad" stroke="#a3c2ad" stroke-width="1.51"/><path d="M870,669L925,633L902,605Z" fill="#a8c4af" stroke="#a8c4af" stroke-width="1.51"/><path d="M471,506L485,578L556,567Z" fill="#a4c3ae" stroke="#a4c3ae" stroke-width="1.51"/><path d="M485,578L559,664L556,567Z" fill="#a6c4ae" stroke="#a6c4ae" stroke-width="1.51"/><path d="M925,633L994,524L902,605Z" fill="#a7c4ae" stroke="#a7c4ae" stroke-width="1.51"/><path d="M384,580L425,634L485,578Z" fill="#abc5b0" stroke="#abc5b0" stroke-width="1.51"/><path d="M501,400L442,464L471,506Z" fill="#9fc1ac" stroke="#9fc1ac" stroke-width="1.51"/><path d="M401,420L442,464L501,400Z" fill="#a1c1ad" stroke="#a1c1ad" stroke-width="1.51"/><path d="M583,229L482,289L582,298Z" fill="#a7c4af" stroke="#a7c4af" stroke-width="1.51"/><path d="M770,680L883,755L870,669Z" fill="#aac4b0" stroke="#aac4b0" stroke-width="1.51"/><path d="M657,691L745,728L770,680Z" fill="#a3c2ae" stroke="#a3c2ae" stroke-width="1.51"/><path d="M675,770L745,728L657,691Z" fill="#a7c4af" stroke="#a7c4af" stroke-width="1.51"/><path d="M994,524L1023,427L907,498Z" fill="#a1c2ad" stroke="#a1c2ad" stroke-width="1.51"/><path d="M951,215L818,146L870,263Z" fill="#abc5b0" stroke="#abc5b0" stroke-width="1.51"/><path d="M761,167L657,128L695,239Z" fill="#a6c4af" stroke="#a6c4af" stroke-width="1.51"/><path d="M938,310L951,215L870,263Z" fill="#aac4af" stroke="#aac4af" stroke-width="1.51"/><path d="M1013,287L951,215L938,310Z" fill="#abc5b0" stroke="#abc5b0" stroke-width="1.51"/><path d="M681,94L657,128L761,167Z" fill="#aac6b1" stroke="#aac6b1" stroke-width="1.51"/><path d="M583,229L487,204L482,289Z" fill="#abc5b0" stroke="#abc5b0" stroke-width="1.51"/><path d="M482,289L423,337L501,400Z" fill="#a6c3ae" stroke="#a6c3ae" stroke-width="1.51"/><path d="M347,317L423,337L396,210Z" fill="#aec6b1" stroke="#aec6b1" stroke-width="1.51"/><path d="M1023,427L1013,287L938,310Z" fill="#a7c3af" stroke="#a7c3af" stroke-width="1.51"/><path d="M423,337L401,420L501,400Z" fill="#a5c3ae" stroke="#a5c3ae" stroke-width="1.51"/><path d="M384,580L485,578L471,506Z" fill="#a7c4af" stroke="#a7c4af" stroke-width="1.51"/><path d="M657,128L568,152L583,229Z" fill="#acc5b0" stroke="#acc5b0" stroke-width="1.51"/><path d="M577,782L675,770L657,691Z" fill="#abc5b0" stroke="#abc5b0" stroke-width="1.51"/><path d="M745,728L883,755L770,680Z" fill="#a9c4b0" stroke="#a9c4b0" stroke-width="1.51"/><path d="M559,664L577,782L657,691Z" fill="#abc5b0" stroke="#abc5b0" stroke-width="1.51"/><path d="M485,578L484,672L559,664Z" fill="#aac4b0" stroke="#aac4b0" stroke-width="1.51"/><path d="M425,634L484,672L485,578Z" fill="#abc5b0" stroke="#abc5b0" stroke-width="1.51"/><path d="M518,174L487,204L583,229Z" fill="#adc6b0" stroke="#adc6b0" stroke-width="1.51"/><path d="M568,152L518,174L583,229Z" fill="#adc6b0" stroke="#adc6b0" stroke-width="1.51"/><path d="M994,524L1055,556L1023,427Z" fill="#a5c3ae" stroke="#a5c3ae" stroke-width="1.51"/><path d="M1023,427L1075,345L1013,287Z" fill="#a9c4af" stroke="#a9c4af" stroke-width="1.51"/><path d="M925,633L1055,556L994,524Z" fill="#a8c4af" stroke="#a8c4af" stroke-width="1.51"/><path d="M994,693L1055,556L925,633Z" fill="#acc5b0" stroke="#acc5b0" stroke-width="1.51"/><path d="M657,128L598,87L568,152Z" fill="#b0c8b4" stroke="#b0c8b4" stroke-width="1.51"/><path d="M568,152L495,31L518,174Z" fill="#b4cab5" stroke="#b4cab5" stroke-width="1.51"/><path d="M764,66L681,94L761,167Z" fill="#acc7b3" stroke="#acc7b3" stroke-width="1.51"/><path d="M870,669L915,748L925,633Z" fill="#acc5b0" stroke="#acc5b0" stroke-width="1.51"/><path d="M818,822L883,755L745,728Z" fill="#aec7b2" stroke="#aec7b2" stroke-width="1.51"/><path d="M384,580L471,506L442,464Z" fill="#a5c3ae" stroke="#a5c3ae" stroke-width="1.51"/><path d="M1013,287L1049,262L951,215Z" fill="#aec6b1" stroke="#aec6b1" stroke-width="1.51"/><path d="M1113,440L1075,345L1023,427Z" fill="#a7c3ae" stroke="#a7c3ae" stroke-width="1.51"/><path d="M883,755L915,748L870,669Z" fill="#aec6b1" stroke="#aec6b1" stroke-width="1.51"/><path d="M876,54L764,66L818,146Z" fill="#b2cab7" stroke="#b2cab7" stroke-width="1.51"/><path d="M1075,345L1049,262L1013,287Z" fill="#adc6b1" stroke="#adc6b1" stroke-width="1.51"/><path d="M915,748L994,693L925,633Z" fill="#aec6b1" stroke="#aec6b1" stroke-width="1.51"/><path d="M341,463L384,580L442,464Z" fill="#a6c4ae" stroke="#a6c4ae" stroke-width="1.51"/><path d="M530,763L577,782L559,664Z" fill="#afc6b1" stroke="#afc6b1" stroke-width="1.51"/><path d="M675,770L698,821L745,728Z" fill="#aac5b1" stroke="#aac5b1" stroke-width="1.51"/><path d="M530,763L559,664L484,672Z" fill="#adc6b1" stroke="#adc6b1" stroke-width="1.51"/><path d="M681,94L598,87L657,128Z" fill="#b0c9b5" stroke="#b0c9b5" stroke-width="1.51"/><path d="M518,174L442,163L487,204Z" fill="#b1c7b2" stroke="#b1c7b2" stroke-width="1.51"/><path d="M818,146L764,66L761,167Z" fill="#acc7b2" stroke="#acc7b2" stroke-width="1.51"/><path d="M681,94L587,-6L598,87Z" fill="#b6ccbb" stroke="#b6ccbb" stroke-width="1.51"/><path d="M963,136L818,146L951,215Z" fill="#b0c7b1" stroke="#b0c7b1" stroke-width="1.51"/><path d="M445,738L530,763L484,672Z" fill="#b1c7b2" stroke="#b1c7b2" stroke-width="1.51"/><path d="M589,824L698,821L675,770Z" fill="#b0c9b6" stroke="#b0c9b6" stroke-width="1.51"/><path d="M933,866L1002,816L915,748Z" fill="#b9ccb9" stroke="#b9ccb9" stroke-width="1.51"/><path d="M1036,177L963,136L951,215Z" fill="#b3c8b3" stroke="#b3c8b3" stroke-width="1.51"/><path d="M401,420L341,463L442,464Z" fill="#a2c2ad" stroke="#a2c2ad" stroke-width="1.51"/><path d="M347,317L341,424L401,420Z" fill="#a8c4af" stroke="#a8c4af" stroke-width="1.51"/><path d="M347,317L401,420L423,337Z" fill="#a9c4af" stroke="#a9c4af" stroke-width="1.51"/><path d="M341,424L341,463L401,420Z" fill="#a5c3ae" stroke="#a5c3ae" stroke-width="1.51"/><path d="M1130,479L1113,440L1023,427Z" fill="#a4c3ae" stroke="#a4c3ae" stroke-width="1.51"/><path d="M1094,215L1036,177L1049,262Z" fill="#b4c8b3" stroke="#b4c8b3" stroke-width="1.51"/><path d="M1130,479L1023,427L1055,556Z" fill="#a6c3ae" stroke="#a6c3ae" stroke-width="1.51"/><path d="M915,748L1008,767L994,693Z" fill="#b3c8b2" stroke="#b3c8b2" stroke-width="1.51"/><path d="M773,834L818,822L745,728Z" fill="#afc8b5" stroke="#afc8b5" stroke-width="1.51"/><path d="M487,204L396,210L482,289Z" fill="#afc6b2" stroke="#afc6b2" stroke-width="1.51"/><path d="M495,31L442,163L518,174Z" fill="#b6cab6" stroke="#b6cab6" stroke-width="1.51"/><path d="M698,821L773,834L745,728Z" fill="#adc8b4" stroke="#adc8b4" stroke-width="1.51"/><path d="M396,210L423,337L482,289Z" fill="#acc6b0" stroke="#acc6b0" stroke-width="1.51"/><path d="M442,163L396,210L487,204Z" fill="#b3c8b2" stroke="#b3c8b2" stroke-width="1.51"/><path d="M1094,215L1049,262L1075,345Z" fill="#b0c7b1" stroke="#b0c7b1" stroke-width="1.51"/><path d="M1129,572L1130,479L1055,556Z" fill="#abc5b0" stroke="#abc5b0" stroke-width="1.51"/><path d="M1049,262L1036,177L951,215Z" fill="#b1c7b2" stroke="#b1c7b2" stroke-width="1.51"/><path d="M1094,215L1075,345L1204,351Z" fill="#b1c7b2" stroke="#b1c7b2" stroke-width="1.51"/><path d="M698,821L699,900L773,834Z" fill="#b2ccba" stroke="#b2ccba" stroke-width="1.51"/><path d="M577,782L589,824L675,770Z" fill="#b1c9b5" stroke="#b1c9b5" stroke-width="1.51"/><path d="M530,763L589,824L577,782Z" fill="#b3c9b6" stroke="#b3c9b6" stroke-width="1.51"/><path d="M530,763L478,807L589,824Z" fill="#b6cbb7" stroke="#b6cbb7" stroke-width="1.51"/><path d="M425,634L445,738L484,672Z" fill="#b0c6b2" stroke="#b0c6b2" stroke-width="1.51"/><path d="M327,750L445,738L425,634Z" fill="#b5c8b3" stroke="#b5c8b3" stroke-width="1.51"/><path d="M967,61L876,54L963,136Z" fill="#b9cdba" stroke="#b9cdba" stroke-width="1.51"/><path d="M963,136L876,54L818,146Z" fill="#b4cab5" stroke="#b4cab5" stroke-width="1.51"/><path d="M341,463L326,560L384,580Z" fill="#abc5b0" stroke="#abc5b0" stroke-width="1.51"/><path d="M384,580L305,682L425,634Z" fill="#b1c7b1" stroke="#b1c7b1" stroke-width="1.51"/><path d="M240,545L326,560L341,463Z" fill="#acc6b0" stroke="#acc6b0" stroke-width="1.51"/><path d="M305,682L326,560L240,545Z" fill="#b2c7b2" stroke="#b2c7b2" stroke-width="1.51"/><path d="M1140,659L1129,572L1055,556Z" fill="#b0c6b2" stroke="#b0c6b2" stroke-width="1.51"/><path d="M1041,69L967,61L963,136Z" fill="#bbcdba" stroke="#bbcdba" stroke-width="1.51"/><path d="M1204,351L1075,345L1113,440Z" fill="#acc5b0" stroke="#acc5b0" stroke-width="1.51"/><path d="M994,693L1140,659L1055,556Z" fill="#b0c7b2" stroke="#b0c7b2" stroke-width="1.51"/><path d="M1002,816L1008,767L915,748Z" fill="#b7cab6" stroke="#b7cab6" stroke-width="1.51"/><path d="M240,400L341,463L341,424Z" fill="#a8c4af" stroke="#a8c4af" stroke-width="1.51"/><path d="M396,210L349,213L347,317Z" fill="#b2c7b2" stroke="#b2c7b2" stroke-width="1.51"/><path d="M303,126L349,213L396,210Z" fill="#b8c9b4" stroke="#b8c9b4" stroke-width="1.51"/><path d="M445,738L478,807L530,763Z" fill="#b5c9b5" stroke="#b5c9b5" stroke-width="1.51"/><path d="M406,848L478,807L445,738Z" fill="#bacdb9" stroke="#bacdb9" stroke-width="1.51"/><path d="M1130,479L1167,491L1113,440Z" fill="#a8c4af" stroke="#a8c4af" stroke-width="1.51"/><path d="M1129,572L1167,491L1130,479Z" fill="#acc5b0" stroke="#acc5b0" stroke-width="1.51"/><path d="M1041,69L963,136L1036,177Z" fill="#b8cab6" stroke="#b8cab6" stroke-width="1.51"/><path d="M764,66L706,-9L681,94Z" fill="#b2ccba" stroke="#b2ccba" stroke-width="1.51"/><path d="M598,87L495,31L568,152Z" fill="#b6ccb8" stroke="#b6ccb8" stroke-width="1.51"/><path d="M442,163L303,126L396,210Z" fill="#b7c9b4" stroke="#b7c9b4" stroke-width="1.51"/><path d="M780,-13L706,-9L764,66Z" fill="#b7cfbf" stroke="#b7cfbf" stroke-width="1.51"/><path d="M780,-13L764,66L876,54Z" fill="#b8cebd" stroke="#b8cebd" stroke-width="1.51"/><path d="M870,-44L780,-13L876,54Z" fill="#bdd2c2" stroke="#bdd2c2" stroke-width="1.51"/><path d="M1008,767L1085,728L994,693Z" fill="#b6c9b3" stroke="#b6c9b3" stroke-width="1.51"/><path d="M1129,572L1193,557L1167,491Z" fill="#afc7b2" stroke="#afc7b2" stroke-width="1.51"/><path d="M865,907L933,866L818,822Z" fill="#bbcfbe" stroke="#bbcfbe" stroke-width="1.51"/><path d="M933,866L915,748L883,755Z" fill="#b5cab6" stroke="#b5cab6" stroke-width="1.51"/><path d="M589,824L699,900L698,821Z" fill="#b4ccbb" stroke="#b4ccbb" stroke-width="1.51"/><path d="M574,950L699,900L589,824Z" fill="#bbd0c1" stroke="#bbd0c1" stroke-width="1.51"/><path d="M1008,767L1121,850L1085,728Z" fill="#bcccb8" stroke="#bcccb8" stroke-width="1.51"/><path d="M933,866L883,755L818,822Z" fill="#b6ccb8" stroke="#b6ccb8" stroke-width="1.51"/><path d="M651,-119L587,-6L706,-9Z" fill="#bfd5c6" stroke="#bfd5c6" stroke-width="1.51"/><path d="M706,-9L587,-6L681,94Z" fill="#b7cebe" stroke="#b7cebe" stroke-width="1.51"/><path d="M1094,215L1094,151L1036,177Z" fill="#b7c9b3" stroke="#b7c9b3" stroke-width="1.51"/><path d="M1220,172L1094,151L1094,215Z" fill="#bacab5" stroke="#bacab5" stroke-width="1.51"/><path d="M1085,728L1140,659L994,693Z" fill="#b5c8b3" stroke="#b5c8b3" stroke-width="1.51"/><path d="M587,-6L495,31L598,87Z" fill="#bbcfbe" stroke="#bbcfbe" stroke-width="1.51"/><path d="M865,907L818,822L773,834Z" fill="#b7cdbc" stroke="#b7cdbc" stroke-width="1.51"/><path d="M1180,651L1193,557L1129,572Z" fill="#b3c8b3" stroke="#b3c8b3" stroke-width="1.51"/><path d="M1224,377L1204,351L1113,440Z" fill="#aec7b3" stroke="#aec7b3" stroke-width="1.51"/><path d="M1224,377L1113,440L1167,491Z" fill="#a9c5b1" stroke="#a9c5b1" stroke-width="1.51"/><path d="M326,560L305,682L384,580Z" fill="#b0c7b1" stroke="#b0c7b1" stroke-width="1.51"/><path d="M240,400L341,424L347,317Z" fill="#abc5b0" stroke="#abc5b0" stroke-width="1.51"/><path d="M1075,87L1041,69L1036,177Z" fill="#bccdb8" stroke="#bccdb8" stroke-width="1.51"/><path d="M967,61L948,-13L876,54Z" fill="#bed0c0" stroke="#bed0c0" stroke-width="1.51"/><path d="M771,939L865,907L773,834Z" fill="#bad1c1" stroke="#bad1c1" stroke-width="1.51"/><path d="M214,325L240,400L347,317Z" fill="#b0c7b3" stroke="#b0c7b3" stroke-width="1.51"/><path d="M1094,151L1075,87L1036,177Z" fill="#bacab5" stroke="#bacab5" stroke-width="1.51"/><path d="M1167,83L1075,87L1094,151Z" fill="#bfceba" stroke="#bfceba" stroke-width="1.51"/><path d="M216,507L240,545L341,463Z" fill="#adc7b2" stroke="#adc7b2" stroke-width="1.51"/><path d="M1206,740L1140,659L1085,728Z" fill="#bacab5" stroke="#bacab5" stroke-width="1.51"/><path d="M1206,740L1180,651L1140,659Z" fill="#bacbb6" stroke="#bacbb6" stroke-width="1.51"/><path d="M1140,659L1180,651L1129,572Z" fill="#b4c8b3" stroke="#b4c8b3" stroke-width="1.51"/><path d="M699,900L771,939L773,834Z" fill="#b7cfbf" stroke="#b7cfbf" stroke-width="1.51"/><path d="M779,998L771,939L696,1029Z" fill="#c2d8cb" stroke="#c2d8cb" stroke-width="1.51"/><path d="M1250,478L1167,491L1193,557Z" fill="#b0c8b4" stroke="#b0c8b4" stroke-width="1.51"/><path d="M1250,478L1224,377L1167,491Z" fill="#acc7b4" stroke="#acc7b4" stroke-width="1.51"/><path d="M1204,351L1209,230L1094,215Z" fill="#b6c9b5" stroke="#b6c9b5" stroke-width="1.51"/><path d="M349,213L263,244L347,317Z" fill="#b4c8b3" stroke="#b4c8b3" stroke-width="1.51"/><path d="M245,180L263,244L349,213Z" fill="#b9cab4" stroke="#b9cab4" stroke-width="1.51"/><path d="M1032,-42L967,61L1041,69Z" fill="#c2d2c1" stroke="#c2d2c1" stroke-width="1.51"/><path d="M1032,-42L948,-13L967,61Z" fill="#c4d4c4" stroke="#c4d4c4" stroke-width="1.51"/><path d="M948,-13L870,-44L876,54Z" fill="#c0d3c3" stroke="#c0d3c3" stroke-width="1.51"/><path d="M780,-13L753,-79L706,-9Z" fill="#bcd3c5" stroke="#bcd3c5" stroke-width="1.51"/><path d="M305,682L327,750L425,634Z" fill="#b6c9b3" stroke="#b6c9b3" stroke-width="1.51"/><path d="M470,913L574,950L589,824Z" fill="#bfd2c3" stroke="#bfd2c3" stroke-width="1.51"/><path d="M268,690L327,750L305,682Z" fill="#bacab5" stroke="#bacab5" stroke-width="1.51"/><path d="M240,545L268,690L305,682Z" fill="#b7c9b5" stroke="#b7c9b5" stroke-width="1.51"/><path d="M240,400L216,507L341,463Z" fill="#a9c5b1" stroke="#a9c5b1" stroke-width="1.51"/><path d="M158,387L216,507L240,400Z" fill="#afc9b6" stroke="#afc9b6" stroke-width="1.51"/><path d="M865,907L968,895L933,866Z" fill="#c0d2c2" stroke="#c0d2c2" stroke-width="1.51"/><path d="M933,866L968,895L1002,816Z" fill="#bfd1bf" stroke="#bfd1bf" stroke-width="1.51"/><path d="M1190,821L1206,740L1085,728Z" fill="#beccb7" stroke="#beccb7" stroke-width="1.51"/><path d="M876,980L968,895L865,907Z" fill="#c3d5c6" stroke="#c3d5c6" stroke-width="1.51"/><path d="M327,750L406,848L445,738Z" fill="#bbcbb7" stroke="#bbcbb7" stroke-width="1.51"/><path d="M870,-44L753,-79L780,-13Z" fill="#bfd5c7" stroke="#bfd5c7" stroke-width="1.51"/><path d="M477,-35L397,30L495,31Z" fill="#c3d3c4" stroke="#c3d3c4" stroke-width="1.51"/><path d="M327,750L324,806L406,848Z" fill="#bfceba" stroke="#bfceba" stroke-width="1.51"/><path d="M218,741L268,690L167,667Z" fill="#becdba" stroke="#becdba" stroke-width="1.51"/><path d="M1304,575L1250,478L1193,557Z" fill="#b5cbb9" stroke="#b5cbb9" stroke-width="1.51"/><path d="M263,244L214,325L347,317Z" fill="#b4c9b3" stroke="#b4c9b3" stroke-width="1.51"/><path d="M495,31L397,30L442,163Z" fill="#bccebc" stroke="#bccebc" stroke-width="1.51"/><path d="M477,-35L495,31L587,-6Z" fill="#c1d3c3" stroke="#c1d3c3" stroke-width="1.51"/><path d="M1283,296L1204,351L1224,377Z" fill="#b6cbb8" stroke="#b6cbb8" stroke-width="1.51"/><path d="M1283,296L1209,230L1204,351Z" fill="#b9ccb9" stroke="#b9ccb9" stroke-width="1.51"/><path d="M160,242L191,332L214,325Z" fill="#bacdba" stroke="#bacdba" stroke-width="1.51"/><path d="M397,30L303,126L442,163Z" fill="#bdcdb9" stroke="#bdcdb9" stroke-width="1.51"/><path d="M470,913L589,824L478,807Z" fill="#bbcfbd" stroke="#bbcfbd" stroke-width="1.51"/><path d="M491,-105L477,-35L587,-6Z" fill="#c6d7c9" stroke="#c6d7c9" stroke-width="1.51"/><path d="M406,848L470,913L478,807Z" fill="#c0d0bf" stroke="#c0d0bf" stroke-width="1.51"/><path d="M406,848L444,912L470,913Z" fill="#c4d4c3" stroke="#c4d4c3" stroke-width="1.51"/><path d="M268,817L324,806L327,750Z" fill="#c0cdba" stroke="#c0cdba" stroke-width="1.51"/><path d="M214,325L191,332L240,400Z" fill="#b4cab7" stroke="#b4cab7" stroke-width="1.51"/><path d="M160,242L214,325L263,244Z" fill="#b9ccb9" stroke="#b9ccb9" stroke-width="1.51"/><path d="M303,126L245,180L349,213Z" fill="#bbcbb5" stroke="#bbcbb5" stroke-width="1.51"/><path d="M169,120L245,180L303,126Z" fill="#c1ceba" stroke="#c1ceba" stroke-width="1.51"/><path d="M303,927L444,912L406,848Z" fill="#c7d5c5" stroke="#c7d5c5" stroke-width="1.51"/><path d="M470,913L479,982L574,950Z" fill="#c7d7c9" stroke="#c7d7c9" stroke-width="1.51"/><path d="M1250,478L1279,412L1224,377Z" fill="#b1cab7" stroke="#b1cab7" stroke-width="1.51"/><path d="M1370,479L1279,412L1250,478Z" fill="#b3ccbb" stroke="#b3ccbb" stroke-width="1.51"/><path d="M397,30L343,37L303,126Z" fill="#c3d1be" stroke="#c3d1be" stroke-width="1.51"/><path d="M340,-11L343,37L397,30Z" fill="#c7d5c4" stroke="#c7d5c4" stroke-width="1.51"/><path d="M779,998L876,980L771,939Z" fill="#c3d7ca" stroke="#c3d7ca" stroke-width="1.51"/><path d="M771,939L876,980L865,907Z" fill="#c1d5c7" stroke="#c1d5c7" stroke-width="1.51"/><path d="M696,1029L771,939L699,900Z" fill="#bcd4c7" stroke="#bcd4c7" stroke-width="1.51"/><path d="M1209,230L1220,172L1094,215Z" fill="#bacbb6" stroke="#bacbb6" stroke-width="1.51"/><path d="M1092,-15L1032,-42L1041,69Z" fill="#c7d5c5" stroke="#c7d5c5" stroke-width="1.51"/><path d="M1284,225L1220,172L1209,230Z" fill="#bfcebb" stroke="#bfcebb" stroke-width="1.51"/><path d="M753,-79L651,-119L706,-9Z" fill="#bfd6c9" stroke="#bfd6c9" stroke-width="1.51"/><path d="M828,-135L651,-119L753,-79Z" fill="#c4dacd" stroke="#c4dacd" stroke-width="1.51"/><path d="M1121,850L1002,816L1020,954Z" fill="#c5d3c2" stroke="#c5d3c2" stroke-width="1.51"/><path d="M1121,850L1008,767L1002,816Z" fill="#bdcebb" stroke="#bdcebb" stroke-width="1.51"/><path d="M1180,651L1267,671L1193,557Z" fill="#b9ccb8" stroke="#b9ccb8" stroke-width="1.51"/><path d="M651,-119L597,-112L587,-6Z" fill="#c4d8cb" stroke="#c4d8cb" stroke-width="1.51"/><path d="M477,-35L410,-39L397,30Z" fill="#c7d6c6" stroke="#c7d6c6" stroke-width="1.51"/><path d="M1220,172L1167,83L1094,151Z" fill="#bfcdb8" stroke="#bfcdb8" stroke-width="1.51"/><path d="M1020,954L1002,816L968,895Z" fill="#c3d4c3" stroke="#c3d4c3" stroke-width="1.51"/><path d="M870,-44L828,-135L753,-79Z" fill="#c5d8cc" stroke="#c5d8cc" stroke-width="1.51"/><path d="M948,-13L964,-99L870,-44Z" fill="#c7d7ca" stroke="#c7d7ca" stroke-width="1.51"/><path d="M1092,-15L1041,69L1075,87Z" fill="#c3d2c0" stroke="#c3d2c0" stroke-width="1.51"/><path d="M191,332L158,387L240,400Z" fill="#b4cbb8" stroke="#b4cbb8" stroke-width="1.51"/><path d="M167,667L268,690L240,545Z" fill="#b9ccb8" stroke="#b9ccb8" stroke-width="1.51"/><path d="M79,389L158,387L80,294Z" fill="#bbd0c0" stroke="#bbd0c0" stroke-width="1.51"/><path d="M491,-105L410,-39L477,-35Z" fill="#cad9cb" stroke="#cad9cb" stroke-width="1.51"/><path d="M1279,412L1283,296L1224,377Z" fill="#b6ccba" stroke="#b6ccba" stroke-width="1.51"/><path d="M1167,83L1092,-15L1075,87Z" fill="#c5d2c0" stroke="#c5d2c0" stroke-width="1.51"/><path d="M964,-99L828,-135L870,-44Z" fill="#c9dace" stroke="#c9dace" stroke-width="1.51"/><path d="M992,-80L948,-13L1032,-42Z" fill="#c9d8ca" stroke="#c9d8ca" stroke-width="1.51"/><path d="M1114,-145L992,-80L1032,-42Z" fill="#d1ddd0" stroke="#d1ddd0" stroke-width="1.51"/><path d="M1263,741L1267,671L1206,740Z" fill="#c1cfbc" stroke="#c1cfbc" stroke-width="1.51"/><path d="M1206,740L1267,671L1180,651Z" fill="#bdcdba" stroke="#bdcdba" stroke-width="1.51"/><path d="M992,-80L964,-99L948,-13Z" fill="#cad9cc" stroke="#cad9cc" stroke-width="1.51"/><path d="M1114,-145L964,-99L992,-80Z" fill="#d2ded2" stroke="#d2ded2" stroke-width="1.51"/><path d="M779,998L924,1020L876,980Z" fill="#c9dbce" stroke="#c9dbce" stroke-width="1.51"/><path d="M574,950L696,1029L699,900Z" fill="#c0d6c8" stroke="#c0d6c8" stroke-width="1.51"/><path d="M590,1022L696,1029L574,950Z" fill="#c6dacd" stroke="#c6dacd" stroke-width="1.51"/><path d="M268,690L218,741L327,750Z" fill="#bdccb7" stroke="#bdccb7" stroke-width="1.51"/><path d="M324,806L303,927L406,848Z" fill="#c5d3c1" stroke="#c5d3c1" stroke-width="1.51"/><path d="M127,596L240,545L216,507Z" fill="#b6ccb9" stroke="#b6ccb9" stroke-width="1.51"/><path d="M924,1020L1020,954L968,895Z" fill="#cad9cb" stroke="#cad9cb" stroke-width="1.51"/><path d="M924,1020L968,895L876,980Z" fill="#c8d9cb" stroke="#c8d9cb" stroke-width="1.51"/><path d="M158,387L136,488L216,507Z" fill="#b1cbb8" stroke="#b1cbb8" stroke-width="1.51"/><path d="M1267,671L1304,575L1193,557Z" fill="#b9cdbb" stroke="#b9cdbb" stroke-width="1.51"/><path d="M1279,412L1380,306L1283,296Z" fill="#bbd0bf" stroke="#bbd0bf" stroke-width="1.51"/><path d="M399,-139L597,-112L651,-119Z" fill="#cdddd1" stroke="#cdddd1" stroke-width="1.51"/><path d="M399,-139L491,-105L597,-112Z" fill="#cfded1" stroke="#cfded1" stroke-width="1.51"/><path d="M597,-112L491,-105L587,-6Z" fill="#c7d9cb" stroke="#c7d9cb" stroke-width="1.51"/><path d="M262,-8L340,-11L317,-79Z" fill="#cfd9ca" stroke="#cfd9ca" stroke-width="1.51"/><path d="M410,-39L340,-11L397,30Z" fill="#c9d6c6" stroke="#c9d6c6" stroke-width="1.51"/><path d="M343,37L265,40L303,126Z" fill="#c4d1bf" stroke="#c4d1bf" stroke-width="1.51"/><path d="M218,741L268,817L327,750Z" fill="#c0cdb9" stroke="#c0cdb9" stroke-width="1.51"/><path d="M445,981L479,982L470,913Z" fill="#cad9cb" stroke="#cad9cb" stroke-width="1.51"/><path d="M445,981L470,913L444,912Z" fill="#c8d7c9" stroke="#c8d7c9" stroke-width="1.51"/><path d="M1283,296L1284,225L1209,230Z" fill="#bdcebc" stroke="#bdcebc" stroke-width="1.51"/><path d="M1220,172L1259,122L1167,83Z" fill="#c4d0bd" stroke="#c4d0bd" stroke-width="1.51"/><path d="M1167,83L1214,8L1092,-15Z" fill="#cad5c5" stroke="#cad5c5" stroke-width="1.51"/><path d="M1347,231L1284,225L1283,296Z" fill="#c1d1c0" stroke="#c1d1c0" stroke-width="1.51"/><path d="M479,982L590,1022L574,950Z" fill="#c9dacd" stroke="#c9dacd" stroke-width="1.51"/><path d="M245,180L160,242L263,244Z" fill="#bccdba" stroke="#bccdba" stroke-width="1.51"/><path d="M42,473L101,573L136,488Z" fill="#bad0c0" stroke="#bad0c0" stroke-width="1.51"/><path d="M169,120L160,242L245,180Z" fill="#c1cfbd" stroke="#c1cfbd" stroke-width="1.51"/><path d="M1121,850L1190,821L1085,728Z" fill="#c1cebb" stroke="#c1cebb" stroke-width="1.51"/><path d="M1177,939L1190,821L1121,850Z" fill="#cad5c5" stroke="#cad5c5" stroke-width="1.51"/><path d="M127,596L167,667L240,545Z" fill="#bacebb" stroke="#bacebb" stroke-width="1.51"/><path d="M218,741L175,758L268,817Z" fill="#c4d0be" stroke="#c4d0be" stroke-width="1.51"/><path d="M479,982L445,981L590,1022Z" fill="#ccdccf" stroke="#ccdccf" stroke-width="1.51"/><path d="M303,927L445,981L444,912Z" fill="#cbd8ca" stroke="#cbd8ca" stroke-width="1.51"/><path d="M340,-11L265,40L343,37Z" fill="#c9d5c4" stroke="#c9d5c4" stroke-width="1.51"/><path d="M696,1029L924,1020L779,998Z" fill="#c7dbcf" stroke="#c7dbcf" stroke-width="1.51"/><path d="M1190,821L1263,741L1206,740Z" fill="#c3d0bd" stroke="#c3d0bd" stroke-width="1.51"/><path d="M1359,658L1348,581L1304,575Z" fill="#c0d2c1" stroke="#c0d2c1" stroke-width="1.51"/><path d="M1368,745L1267,671L1263,741Z" fill="#c5d2c1" stroke="#c5d2c1" stroke-width="1.51"/><path d="M1020,954L1120,913L1121,850Z" fill="#cad7c7" stroke="#cad7c7" stroke-width="1.51"/><path d="M1093,1008L1120,913L1020,954Z" fill="#cfdbcd" stroke="#cfdbcd" stroke-width="1.51"/><path d="M924,1020L1019,984L1020,954Z" fill="#cedbcf" stroke="#cedbcf" stroke-width="1.51"/><path d="M136,488L127,596L216,507Z" fill="#b7cdbb" stroke="#b7cdbb" stroke-width="1.51"/><path d="M1284,225L1259,122L1220,172Z" fill="#c2d0be" stroke="#c2d0be" stroke-width="1.51"/><path d="M268,817L303,927L324,806Z" fill="#c7d3c1" stroke="#c7d3c1" stroke-width="1.51"/><path d="M167,667L175,758L218,741Z" fill="#c2d0be" stroke="#c2d0be" stroke-width="1.51"/><path d="M104,725L175,758L167,667Z" fill="#c5d2c0" stroke="#c5d2c0" stroke-width="1.51"/><path d="M1304,575L1370,479L1250,478Z" fill="#b7cebd" stroke="#b7cebd" stroke-width="1.51"/><path d="M1359,658L1304,575L1267,671Z" fill="#c0d1c0" stroke="#c0d1c0" stroke-width="1.51"/><path d="M63,663L104,725L167,667Z" fill="#c5d4c3" stroke="#c5d4c3" stroke-width="1.51"/><path d="M136,488L101,573L127,596Z" fill="#bbcfbf" stroke="#bbcfbf" stroke-width="1.51"/><path d="M79,389L136,488L158,387Z" fill="#b5cdbd" stroke="#b5cdbd" stroke-width="1.51"/><path d="M80,294L158,387L191,332Z" fill="#bacfbd" stroke="#bacfbd" stroke-width="1.51"/><path d="M265,40L169,120L303,126Z" fill="#c5d2bf" stroke="#c5d2bf" stroke-width="1.51"/><path d="M1259,122L1251,65L1167,83Z" fill="#c8d4c2" stroke="#c8d4c2" stroke-width="1.51"/><path d="M1092,-15L1114,-145L1032,-42Z" fill="#d0dcce" stroke="#d0dcce" stroke-width="1.51"/><path d="M1357,34L1251,65L1259,122Z" fill="#cfd9c9" stroke="#cfd9c9" stroke-width="1.51"/><path d="M1348,581L1370,479L1304,575Z" fill="#bcd1c0" stroke="#bcd1c0" stroke-width="1.51"/><path d="M1284,225L1373,146L1259,122Z" fill="#c7d3c2" stroke="#c7d3c2" stroke-width="1.51"/><path d="M340,-11L262,-8L265,40Z" fill="#ccd6c6" stroke="#ccd6c6" stroke-width="1.51"/><path d="M165,-1L130,60L169,120Z" fill="#d0dacb" stroke="#d0dacb" stroke-width="1.51"/><path d="M317,-79L340,-11L410,-39Z" fill="#cedacb" stroke="#cedacb" stroke-width="1.51"/><path d="M238,900L303,927L268,817Z" fill="#ccd7c6" stroke="#ccd7c6" stroke-width="1.51"/><path d="M80,294L191,332L160,242Z" fill="#bdd0be" stroke="#bdd0be" stroke-width="1.51"/><path d="M1251,65L1214,8L1167,83Z" fill="#cbd6c6" stroke="#cbd6c6" stroke-width="1.51"/><path d="M1380,306L1347,231L1283,296Z" fill="#c1d3c2" stroke="#c1d3c2" stroke-width="1.51"/><path d="M399,-139L317,-79L410,-39Z" fill="#d1ddd0" stroke="#d1ddd0" stroke-width="1.51"/><path d="M169,120L98,235L160,242Z" fill="#c4d2c1" stroke="#c4d2c1" stroke-width="1.51"/><path d="M98,235L80,294L160,242Z" fill="#c2d2c2" stroke="#c2d2c2" stroke-width="1.51"/><path d="M491,-105L399,-139L410,-39Z" fill="#cfddd0" stroke="#cfddd0" stroke-width="1.51"/><path d="M828,-135L399,-139L651,-119Z" fill="#cadcd1" stroke="#cadcd1" stroke-width="1.51"/><path d="M1370,479L1391,394L1279,412Z" fill="#b7cfbf" stroke="#b7cfbf" stroke-width="1.51"/><path d="M1452,499L1391,394L1370,479Z" fill="#bad2c4" stroke="#bad2c4" stroke-width="1.51"/><path d="M1391,394L1380,306L1279,412Z" fill="#bbd1c1" stroke="#bbd1c1" stroke-width="1.51"/><path d="M1348,581L1438,551L1370,479Z" fill="#bfd3c4" stroke="#bfd3c4" stroke-width="1.51"/><path d="M1368,745L1359,658L1267,671Z" fill="#c6d4c3" stroke="#c6d4c3" stroke-width="1.51"/><path d="M1286,848L1263,741L1190,821Z" fill="#c9d4c3" stroke="#c9d4c3" stroke-width="1.51"/><path d="M180,857L238,900L268,817Z" fill="#ccd7c7" stroke="#ccd7c7" stroke-width="1.51"/><path d="M1120,913L1177,939L1121,850Z" fill="#ccd7c7" stroke="#ccd7c7" stroke-width="1.51"/><path d="M1093,1008L1177,939L1120,913Z" fill="#d1dbcd" stroke="#d1dbcd" stroke-width="1.51"/><path d="M1093,1008L1020,954L1019,984Z" fill="#d0dccf" stroke="#d0dccf" stroke-width="1.51"/><path d="M924,1020L1093,1008L1019,984Z" fill="#d1ddd1" stroke="#d1ddd1" stroke-width="1.51"/><path d="M175,758L180,857L268,817Z" fill="#c9d4c3" stroke="#c9d4c3" stroke-width="1.51"/><path d="M63,663L167,667L127,596Z" fill="#c1d2c1" stroke="#c1d2c1" stroke-width="1.51"/><path d="M63,663L127,596L101,573Z" fill="#c1d2c2" stroke="#c1d2c2" stroke-width="1.51"/><path d="M79,389L42,473L136,488Z" fill="#b6cfbf" stroke="#b6cfbf" stroke-width="1.51"/><path d="M12,390L42,473L79,389Z" fill="#bbd3c4" stroke="#bbd3c4" stroke-width="1.51"/><path d="M73,839L180,857L175,758Z" fill="#cfd9c9" stroke="#cfd9c9" stroke-width="1.51"/><path d="M1177,939L1286,848L1190,821Z" fill="#ced9c9" stroke="#ced9c9" stroke-width="1.51"/><path d="M237,1012L316,1000L303,927Z" fill="#d5ded1" stroke="#d5ded1" stroke-width="1.51"/><path d="M303,927L316,1000L445,981Z" fill="#d0dcce" stroke="#d0dcce" stroke-width="1.51"/><path d="M445,981L316,1000L590,1022Z" fill="#cfddd1" stroke="#cfddd1" stroke-width="1.51"/><path d="M237,1012L303,927L238,900Z" fill="#d3dccf" stroke="#d3dccf" stroke-width="1.51"/><path d="M1260,-56L1190,-84L1214,8Z" fill="#d6dfd2" stroke="#d6dfd2" stroke-width="1.51"/><path d="M1214,8L1190,-84L1092,-15Z" fill="#d1dbcc" stroke="#d1dbcc" stroke-width="1.51"/><path d="M964,-99L1114,-145L828,-135Z" fill="#d1dfd3" stroke="#d1dfd3" stroke-width="1.51"/><path d="M1260,-56L1214,8L1251,65Z" fill="#d2dcce" stroke="#d2dcce" stroke-width="1.51"/><path d="M-28,610L63,663L101,573Z" fill="#c5d5c7" stroke="#c5d5c7" stroke-width="1.51"/><path d="M128,937L238,900L180,857Z" fill="#d4ddcf" stroke="#d4ddcf" stroke-width="1.51"/><path d="M1190,-84L1114,-145L1092,-15Z" fill="#d4ddd0" stroke="#d4ddd0" stroke-width="1.51"/><path d="M828,-135L1114,-145L399,-139Z" fill="#c9dcd1" stroke="#c9dcd1" stroke-width="1.51"/><path d="M-38,304L12,390L80,294Z" fill="#c4d6c8" stroke="#c4d6c8" stroke-width="1.51"/><path d="M169,120L63,155L98,235Z" fill="#c8d5c4" stroke="#c8d5c4" stroke-width="1.51"/><path d="M165,-1L169,120L265,40Z" fill="#cdd8c8" stroke="#cdd8c8" stroke-width="1.51"/><path d="M165,-1L265,40L262,-8Z" fill="#cfdaca" stroke="#cfdaca" stroke-width="1.51"/><path d="M1347,231L1373,146L1284,225Z" fill="#c6d4c4" stroke="#c6d4c4" stroke-width="1.51"/><path d="M1446,172L1373,146L1347,231Z" fill="#ccd8c8" stroke="#ccd8c8" stroke-width="1.51"/><path d="M1421,252L1347,231L1380,306Z" fill="#c6d5c6" stroke="#c6d5c6" stroke-width="1.51"/><path d="M1359,658L1438,551L1348,581Z" fill="#c3d4c5" stroke="#c3d4c5" stroke-width="1.51"/><path d="M1360,831L1368,745L1263,741Z" fill="#ccd7c7" stroke="#ccd7c7" stroke-width="1.51"/><path d="M216,-100L262,-8L317,-79Z" fill="#d5ded1" stroke="#d5ded1" stroke-width="1.51"/><path d="M216,-100L165,-1L262,-8Z" fill="#d6dfd1" stroke="#d6dfd1" stroke-width="1.51"/><path d="M42,473L15,508L101,573Z" fill="#bdd3c4" stroke="#bdd3c4" stroke-width="1.51"/><path d="M12,390L15,508L42,473Z" fill="#bbd3c5" stroke="#bbd3c5" stroke-width="1.51"/><path d="M12,390L79,389L80,294Z" fill="#bfd3c4" stroke="#bfd3c4" stroke-width="1.51"/><path d="M-7,221L80,294L98,235Z" fill="#c6d6c6" stroke="#c6d6c6" stroke-width="1.51"/><path d="M1473,299L1380,306L1391,394Z" fill="#c3d6c7" stroke="#c3d6c7" stroke-width="1.51"/><path d="M1473,299L1421,252L1380,306Z" fill="#c7d7c9" stroke="#c7d7c9" stroke-width="1.51"/><path d="M1456,684L1438,551L1359,658Z" fill="#c8d7c9" stroke="#c8d7c9" stroke-width="1.51"/><path d="M130,60L63,155L169,120Z" fill="#cdd8c7" stroke="#cdd8c7" stroke-width="1.51"/><path d="M-7,221L63,155L-35,171Z" fill="#cfdacc" stroke="#cfdacc" stroke-width="1.51"/><path d="M1438,551L1452,499L1370,479Z" fill="#bfd4c6" stroke="#bfd4c6" stroke-width="1.51"/><path d="M1190,-84L1303,-126L1114,-145Z" fill="#dde4d9" stroke="#dde4d9" stroke-width="1.51"/><path d="M1357,34L1260,-56L1251,65Z" fill="#d5ded0" stroke="#d5ded0" stroke-width="1.51"/><path d="M1286,848L1360,831L1263,741Z" fill="#cdd8c9" stroke="#cdd8c9" stroke-width="1.51"/><path d="M1177,939L1297,928L1286,848Z" fill="#d4ded0" stroke="#d4ded0" stroke-width="1.51"/><path d="M1093,1008L1213,1001L1177,939Z" fill="#d6dfd1" stroke="#d6dfd1" stroke-width="1.51"/><path d="M1454,1005L1213,1001L1569,1024Z" fill="#ecefea" stroke="#ecefea" stroke-width="1.51"/><path d="M399,-139L216,-100L317,-79Z" fill="#d7e0d3" stroke="#d7e0d3" stroke-width="1.51"/><path d="M43,55L63,155L130,60Z" fill="#d2dccd" stroke="#d2dccd" stroke-width="1.51"/><path d="M1358,917L1360,831L1286,848Z" fill="#d6dfd2" stroke="#d6dfd2" stroke-width="1.51"/><path d="M1368,745L1456,684L1359,658Z" fill="#cbd7c8" stroke="#cbd7c8" stroke-width="1.51"/><path d="M1452,499L1475,407L1391,394Z" fill="#bed5c7" stroke="#bed5c7" stroke-width="1.51"/><path d="M1446,172L1347,231L1421,252Z" fill="#cbd8c9" stroke="#cbd8c9" stroke-width="1.51"/><path d="M1462,47L1357,34L1373,146Z" fill="#d7dfd2" stroke="#d7dfd2" stroke-width="1.51"/><path d="M1373,146L1357,34L1259,122Z" fill="#cfd9ca" stroke="#cfd9ca" stroke-width="1.51"/><path d="M1213,1001L1297,928L1177,939Z" fill="#d8e0d4" stroke="#d8e0d4" stroke-width="1.51"/><path d="M316,1000L237,1012L590,1022Z" fill="#d4dfd3" stroke="#d4dfd3" stroke-width="1.51"/><path d="M590,1022L141,1020L696,1029Z" fill="#d0dfd2" stroke="#d0dfd2" stroke-width="1.51"/><path d="M128,937L237,1012L238,900Z" fill="#d8e0d4" stroke="#d8e0d4" stroke-width="1.51"/><path d="M73,839L175,758L104,725Z" fill="#ccd7c6" stroke="#ccd7c6" stroke-width="1.51"/><path d="M63,663L13,684L104,725Z" fill="#c9d7c7" stroke="#c9d7c7" stroke-width="1.51"/><path d="M-28,610L13,684L63,663Z" fill="#cad8ca" stroke="#cad8ca" stroke-width="1.51"/><path d="M-28,610L101,573L15,508Z" fill="#c3d5c7" stroke="#c3d5c7" stroke-width="1.51"/><path d="M1475,407L1473,299L1391,394Z" fill="#c3d7c9" stroke="#c3d7c9" stroke-width="1.51"/><path d="M-85,592L-28,610L15,508Z" fill="#c8d9cc" stroke="#c8d9cc" stroke-width="1.51"/><path d="M63,155L-7,221L98,235Z" fill="#cad7c8" stroke="#cad7c8" stroke-width="1.51"/><path d="M43,55L130,60L55,-8Z" fill="#d9e1d4" stroke="#d9e1d4" stroke-width="1.51"/><path d="M11,758L73,839L104,725Z" fill="#d0dacb" stroke="#d0dacb" stroke-width="1.51"/><path d="M1510,267L1446,172L1421,252Z" fill="#cedbcd" stroke="#cedbcd" stroke-width="1.51"/><path d="M1438,551L1511,498L1452,499Z" fill="#c3d7ca" stroke="#c3d7ca" stroke-width="1.51"/><path d="M1452,499L1511,498L1475,407Z" fill="#c1d7ca" stroke="#c1d7ca" stroke-width="1.51"/><path d="M1466,777L1456,684L1368,745Z" fill="#d1dbcc" stroke="#d1dbcc" stroke-width="1.51"/><path d="M1507,662L1456,684L1540,720Z" fill="#d2ded1" stroke="#d2ded1" stroke-width="1.51"/><path d="M-85,592L15,508L-103,483Z" fill="#c7dacd" stroke="#c7dacd" stroke-width="1.51"/><path d="M13,684L11,758L104,725Z" fill="#cdd9c9" stroke="#cdd9c9" stroke-width="1.51"/><path d="M-7,221L-38,304L80,294Z" fill="#c8d8ca" stroke="#c8d8ca" stroke-width="1.51"/><path d="M73,839L128,937L180,857Z" fill="#d6dfd1" stroke="#d6dfd1" stroke-width="1.51"/><path d="M73,839L97,947L128,937Z" fill="#dbe3d7" stroke="#dbe3d7" stroke-width="1.51"/><path d="M-130,737L11,758L13,684Z" fill="#d3ddd0" stroke="#d3ddd0" stroke-width="1.51"/><path d="M55,-8L130,60L165,-1Z" fill="#d7e0d3" stroke="#d7e0d3" stroke-width="1.51"/><path d="M-7,221L-75,229L-38,304Z" fill="#cedcce" stroke="#cedcce" stroke-width="1.51"/><path d="M1526,342L1510,267L1473,299Z" fill="#ccdbcf" stroke="#ccdbcf" stroke-width="1.51"/><path d="M1546,580L1511,498L1438,551Z" fill="#c8dacd" stroke="#c8dacd" stroke-width="1.51"/><path d="M1297,928L1358,917L1286,848Z" fill="#d8e0d4" stroke="#d8e0d4" stroke-width="1.51"/><path d="M1370,978L1358,917L1297,928Z" fill="#dfe6db" stroke="#dfe6db" stroke-width="1.51"/><path d="M216,-100L166,-122L165,-1Z" fill="#dce3d8" stroke="#dce3d8" stroke-width="1.51"/><path d="M399,-139L166,-122L216,-100Z" fill="#dbe3d8" stroke="#dbe3d8" stroke-width="1.51"/><path d="M1357,34L1380,-15L1260,-56Z" fill="#dbe3d8" stroke="#dbe3d8" stroke-width="1.51"/><path d="M1260,-56L1303,-126L1190,-84Z" fill="#dee5da" stroke="#dee5da" stroke-width="1.51"/><path d="M1462,47L1380,-15L1357,34Z" fill="#dde4d9" stroke="#dde4d9" stroke-width="1.51"/><path d="M1446,172L1462,47L1373,146Z" fill="#d4ddcf" stroke="#d4ddcf" stroke-width="1.51"/><path d="M1473,299L1510,267L1421,252Z" fill="#cbdacd" stroke="#cbdacd" stroke-width="1.51"/><path d="M1526,342L1473,299L1475,407Z" fill="#c8dacd" stroke="#c8dacd" stroke-width="1.51"/><path d="M1213,1001L1308,995L1297,928Z" fill="#dee4da" stroke="#dee4da" stroke-width="1.51"/><path d="M1454,1005L1308,995L1213,1001Z" fill="#e4eae1" stroke="#e4eae1" stroke-width="1.51"/><path d="M1533,419L1526,342L1475,407Z" fill="#c6dace" stroke="#c6dace" stroke-width="1.51"/><path d="M1511,498L1533,419L1475,407Z" fill="#c2d8cc" stroke="#c2d8cc" stroke-width="1.51"/><path d="M-2,61L-35,171L63,155Z" fill="#d4ddcf" stroke="#d4ddcf" stroke-width="1.51"/><path d="M48,-105L55,-8L165,-1Z" fill="#e0e6dc" stroke="#e0e6dc" stroke-width="1.51"/><path d="M-2,61L63,155L43,55Z" fill="#d6dfd1" stroke="#d6dfd1" stroke-width="1.51"/><path d="M1380,-15L1303,-126L1260,-56Z" fill="#e0e6dc" stroke="#e0e6dc" stroke-width="1.51"/><path d="M63,981L97,947L-35,943Z" fill="#e5eae2" stroke="#e5eae2" stroke-width="1.51"/><path d="M128,937L141,1020L237,1012Z" fill="#dfe6db" stroke="#dfe6db" stroke-width="1.51"/><path d="M1456,684L1507,662L1438,551Z" fill="#ccdacd" stroke="#ccdacd" stroke-width="1.51"/><path d="M1511,498L1546,580L1533,419Z" fill="#c7dbcf" stroke="#c7dbcf" stroke-width="1.51"/><path d="M1466,777L1368,745L1360,831Z" fill="#d3dcce" stroke="#d3dcce" stroke-width="1.51"/><path d="M1441,867L1360,831L1358,917Z" fill="#dbe2d7" stroke="#dbe2d7" stroke-width="1.51"/><path d="M1441,867L1466,777L1360,831Z" fill="#d8e1d5" stroke="#d8e1d5" stroke-width="1.51"/><path d="M55,-8L-2,61L43,55Z" fill="#dce3d8" stroke="#dce3d8" stroke-width="1.51"/><path d="M237,1012L141,1020L590,1022Z" fill="#d8e1d5" stroke="#d8e1d5" stroke-width="1.51"/><path d="M97,947L141,1020L128,937Z" fill="#e0e6dd" stroke="#e0e6dd" stroke-width="1.51"/><path d="M-28,610L-127,645L13,684Z" fill="#cedccf" stroke="#cedccf" stroke-width="1.51"/><path d="M-35,943L97,947L73,839Z" fill="#dfe6dc" stroke="#dfe6dc" stroke-width="1.51"/><path d="M-103,483L15,508L12,390Z" fill="#bfd6c9" stroke="#bfd6c9" stroke-width="1.51"/><path d="M-103,483L12,390L-105,374Z" fill="#c4d9cd" stroke="#c4d9cd" stroke-width="1.51"/><path d="M-35,171L-75,229L-7,221Z" fill="#d1dccf" stroke="#d1dccf" stroke-width="1.51"/><path d="M-94,120L-75,229L-35,171Z" fill="#d5dfd3" stroke="#d5dfd3" stroke-width="1.51"/><path d="M-105,374L12,390L-38,304Z" fill="#c7d9cc" stroke="#c7d9cc" stroke-width="1.51"/><path d="M1540,720L1546,580L1507,662Z" fill="#d2dfd3" stroke="#d2dfd3" stroke-width="1.51"/><path d="M1507,662L1546,580L1438,551Z" fill="#ccdbcf" stroke="#ccdbcf" stroke-width="1.51"/><path d="M1426,918L1441,867L1358,917Z" fill="#e0e6dc" stroke="#e0e6dc" stroke-width="1.51"/><path d="M1466,777L1540,720L1456,684Z" fill="#d4ded1" stroke="#d4ded1" stroke-width="1.51"/><path d="M1515,115L1462,47L1446,172Z" fill="#d9e1d4" stroke="#d9e1d4" stroke-width="1.51"/><path d="M1380,-15L1373,-123L1303,-126Z" fill="#e5eae2" stroke="#e5eae2" stroke-width="1.51"/><path d="M-134,327L-105,374L-38,304Z" fill="#ccddd0" stroke="#ccddd0" stroke-width="1.51"/><path d="M1308,995L1370,978L1297,928Z" fill="#e1e7dd" stroke="#e1e7dd" stroke-width="1.51"/><path d="M1370,978L1426,918L1358,917Z" fill="#e2e8df" stroke="#e2e8df" stroke-width="1.51"/><path d="M1543,808L1540,720L1466,777Z" fill="#dae2d6" stroke="#dae2d6" stroke-width="1.51"/><path d="M1510,267L1515,115L1446,172Z" fill="#d4ded1" stroke="#d4ded1" stroke-width="1.51"/><path d="M1548,63L1515,115L1510,267Z" fill="#d9e1d5" stroke="#d9e1d5" stroke-width="1.51"/><path d="M1548,63L1510,267L1526,342Z" fill="#d3dfd3" stroke="#d3dfd3" stroke-width="1.51"/><path d="M1548,63L1526,342L1533,419Z" fill="#d1ded2" stroke="#d1ded2" stroke-width="1.51"/><path d="M1515,-22L1463,4L1462,47Z" fill="#e4eae1" stroke="#e4eae1" stroke-width="1.51"/><path d="M1462,47L1463,4L1380,-15Z" fill="#e0e7dd" stroke="#e0e7dd" stroke-width="1.51"/><path d="M97,947L63,981L141,1020Z" fill="#e3e9e0" stroke="#e3e9e0" stroke-width="1.51"/><path d="M-35,834L73,839L11,758Z" fill="#d7e0d3" stroke="#d7e0d3" stroke-width="1.51"/><path d="M1462,-132L1373,-123L1380,-15Z" fill="#e9eee7" stroke="#e9eee7" stroke-width="1.51"/><path d="M1303,-126L1462,-132L1114,-145Z" fill="#e6eae3" stroke="#e6eae3" stroke-width="1.51"/><path d="M-130,737L-35,834L11,758Z" fill="#d9e1d5" stroke="#d9e1d5" stroke-width="1.51"/><path d="M1543,808L1466,777L1441,867Z" fill="#dde4d9" stroke="#dde4d9" stroke-width="1.51"/><path d="M-75,229L-134,327L-38,304Z" fill="#cfddd1" stroke="#cfddd1" stroke-width="1.51"/><path d="M-105,374L-134,327L-103,483Z" fill="#c9dcd1" stroke="#c9dcd1" stroke-width="1.51"/><path d="M-103,483L-127,645L-85,592Z" fill="#cdddd2" stroke="#cdddd2" stroke-width="1.51"/><path d="M-94,120L-134,327L-75,229Z" fill="#d4e0d4" stroke="#d4e0d4" stroke-width="1.51"/><path d="M-2,61L-94,120L-35,171Z" fill="#d9e1d5" stroke="#d9e1d5" stroke-width="1.51"/><path d="M55,-8L-39,-23L-2,61Z" fill="#e0e7dd" stroke="#e0e7dd" stroke-width="1.51"/><path d="M166,-122L48,-105L165,-1Z" fill="#e1e7dd" stroke="#e1e7dd" stroke-width="1.51"/><path d="M-85,592L-127,645L-28,610Z" fill="#ceddd1" stroke="#ceddd1" stroke-width="1.51"/><path d="M-134,327L-127,645L-103,483Z" fill="#c8dcd1" stroke="#c8dcd1" stroke-width="1.51"/><path d="M-115,74L-94,120L-2,61Z" fill="#dee5db" stroke="#dee5db" stroke-width="1.51"/><path d="M48,-105L-39,-23L55,-8Z" fill="#e5eae2" stroke="#e5eae2" stroke-width="1.51"/><path d="M1540,720L1543,808L1546,580Z" fill="#d7e1d5" stroke="#d7e1d5" stroke-width="1.51"/><path d="M1527,896L1543,808L1441,867Z" fill="#e2e8df" stroke="#e2e8df" stroke-width="1.51"/><path d="M1527,896L1441,867L1426,918Z" fill="#e3e9e0" stroke="#e3e9e0" stroke-width="1.51"/><path d="M1515,115L1548,63L1462,47Z" fill="#dfe6dc" stroke="#dfe6dc" stroke-width="1.51"/><path d="M1463,4L1462,-132L1380,-15Z" fill="#e7ece5" stroke="#e7ece5" stroke-width="1.51"/><path d="M1546,580L1548,63L1533,419Z" fill="#cbddd1" stroke="#cbddd1" stroke-width="1.51"/><path d="M-35,834L-35,943L73,839Z" fill="#dfe6db" stroke="#dfe6db" stroke-width="1.51"/><path d="M-127,645L-130,737L13,684Z" fill="#d4dfd3" stroke="#d4dfd3" stroke-width="1.51"/><path d="M-134,327L-130,737L-127,645Z" fill="#cfdfd4" stroke="#cfdfd4" stroke-width="1.51"/><path d="M-83,939L-35,943L-35,834Z" fill="#e7ece4" stroke="#e7ece4" stroke-width="1.51"/><path d="M63,981L16,1020L141,1020Z" fill="#e8ede5" stroke="#e8ede5" stroke-width="1.51"/><path d="M1548,63L1515,-22L1462,47Z" fill="#e4eae1" stroke="#e4eae1" stroke-width="1.51"/><path d="M-35,943L16,1020L63,981Z" fill="#eaeee7" stroke="#eaeee7" stroke-width="1.51"/><path d="M141,1020L-102,1021L696,1029Z" fill="#dde4d9" stroke="#dde4d9" stroke-width="1.51"/><path d="M-39,-23L-115,74L-2,61Z" fill="#e2e8df" stroke="#e2e8df" stroke-width="1.51"/><path d="M-94,120L-115,74L-134,327Z" fill="#d9e2d7" stroke="#d9e2d7" stroke-width="1.51"/><path d="M1370,978L1454,1005L1426,918Z" fill="#e8ece5" stroke="#e8ece5" stroke-width="1.51"/><path d="M1308,995L1454,1005L1370,978Z" fill="#e7ece5" stroke="#e7ece5" stroke-width="1.51"/><path d="M1569,1024L1213,1001L1093,1008Z" fill="#e3e9e0" stroke="#e3e9e0" stroke-width="1.51"/><path d="M1569,1024L1093,1008L924,1020Z" fill="#dce4d9" stroke="#dce4d9" stroke-width="1.51"/><path d="M1454,1005L1527,896L1426,918Z" fill="#e8ede6" stroke="#e8ede6" stroke-width="1.51"/><path d="M1515,-22L1462,-132L1463,4Z" fill="#eaefe8" stroke="#eaefe8" stroke-width="1.51"/><path d="M1373,-123L1462,-132L1303,-126Z" fill="#ebefe9" stroke="#ebefe9" stroke-width="1.51"/><path d="M-35,943L-102,1021L16,1020Z" fill="#eff3ed" stroke="#eff3ed" stroke-width="1.51"/><path d="M-130,737L-125,848L-35,834Z" fill="#dfe6dc" stroke="#dfe6dc" stroke-width="1.51"/><path d="M-39,-23L-111,-49L-115,74Z" fill="#e8ede6" stroke="#e8ede6" stroke-width="1.51"/><path d="M48,-105L-39,-119L-39,-23Z" fill="#ecf0e9" stroke="#ecf0e9" stroke-width="1.51"/><path d="M166,-122L-39,-119L48,-105Z" fill="#eaeee8" stroke="#eaeee8" stroke-width="1.51"/><path d="M-97,-127L-39,-119L166,-122Z" fill="#eff2ed" stroke="#eff2ed" stroke-width="1.51"/><path d="M-125,848L-83,939L-35,834Z" fill="#e5eae2" stroke="#e5eae2" stroke-width="1.51"/><path d="M-39,-119L-111,-49L-39,-23Z" fill="#eef1ec" stroke="#eef1ec" stroke-width="1.51"/><path d="M-115,74L-111,-49L-134,327Z" fill="#dee5db" stroke="#dee5db" stroke-width="1.51"/><path d="M1515,-22L1540,-100L1462,-132Z" fill="#f0f3ef" stroke="#f0f3ef" stroke-width="1.51"/><path d="M1548,63L1540,-100L1515,-22Z" fill="#ebefe9" stroke="#ebefe9" stroke-width="1.51"/><path d="M-39,-119L-97,-127L-111,-49Z" fill="#f3f5f1" stroke="#f3f5f1" stroke-width="1.51"/><path d="M399,-139L-97,-127L166,-122Z" fill="#e4eae2" stroke="#e4eae2" stroke-width="1.51"/><path d="M-125,848L-102,1021L-83,939Z" fill="#eef1ec" stroke="#eef1ec" stroke-width="1.51"/><path d="M-83,939L-102,1021L-35,943Z" fill="#eff2ed" stroke="#eff2ed" stroke-width="1.51"/><path d="M16,1020L-102,1021L141,1020Z" fill="#edf1ec" stroke="#edf1ec" stroke-width="1.51"/><path d="M1454,1005L1569,1024L1527,896Z" fill="#f0f3ef" stroke="#f0f3ef" stroke-width="1.51"/><path d="M1527,896L1569,1024L1543,808Z" fill="#ebefe9" stroke="#ebefe9" stroke-width="1.51"/><path d="M1543,808L1569,1024L1546,580Z" fill="#e0e7dd" stroke="#e0e7dd" stroke-width="1.51"/><path d="M1546,580L1569,1024L1548,63Z" fill="#cdddd2" stroke="#cdddd2" stroke-width="1.51"/><path d="M696,1029L1569,1024L924,1020Z" fill="#d5e0d5" stroke="#d5e0d5" stroke-width="1.51"/></svg>